<svg width="54" height="54" viewBox="0 0 54 54" fill="none" xmlns="http://www.w3.org/2000/svg">
<g clip-path="url(#clip0_828_9008)">
<g clip-path="url(#clip1_828_9008)">
<path d="M11.0263 45.4984C9.77981 46.5479 7.90195 46.3938 7.00581 45.0329C5.5028 42.7504 4.37299 40.24 3.66863 37.602C2.98465 35.0404 2.7146 32.4063 2.86247 29.8019C2.95929 28.0968 4.62481 27.0146 6.29005 27.3939V27.3939C7.86843 27.7534 8.85355 29.2996 8.81001 30.9179C8.76212 32.6976 8.97259 34.4898 9.43916 36.2372C9.90716 37.99 10.6249 39.6679 11.5653 41.2188C12.4073 42.6075 12.2685 44.4524 11.0263 45.4984V45.4984Z" fill="#EC3841"/>
<path d="M2.82455 30.9314C2.84778 28.7085 3.17343 26.5106 3.79239 24.3994L9.53224 26.308C9.06674 27.8958 8.82183 29.5487 8.80436 31.2205L2.82455 30.9314Z" fill="#EC3841"/>
<path d="M3.74701 24.5562C4.35159 22.4402 5.24426 20.4288 6.40008 18.5782L11.4934 21.9302C10.6241 23.3219 9.95279 24.8346 9.4981 26.4259L3.74701 24.5562Z" fill="#EE8D00"/>
<path d="M11.2906 13.0034C12.9688 11.6234 14.8353 10.4895 16.8381 9.63339L19.3434 15.2031C17.8372 15.847 16.4334 16.6998 15.1714 17.7375L11.2906 13.0034Z" fill="#EE8D00"/>
<path d="M16.3881 9.83146C18.3713 8.93308 20.4776 8.31824 22.648 8.00412L23.7128 13.9778C22.0805 14.2141 20.4965 14.6765 19.005 15.3521L16.3881 9.83146Z" fill="#F4D523"/>
<path d="M30.739 8.22386C32.9171 8.65608 35.0373 9.38572 37.0404 10.3924L34.5367 15.7739C33.0303 15.0169 31.4358 14.4681 29.7977 14.1431L30.739 8.22386Z" fill="#F4D523"/>
<path d="M36.2567 10.0154C38.2913 10.951 40.1994 12.1591 41.9276 13.6061L38.2122 18.1908C36.9125 17.1026 35.4775 16.194 33.9474 15.4904L36.2567 10.0154Z" fill="#94DA0A"/>
<path d="M47.0911 19.4891C48.3035 21.3927 49.2575 23.4455 49.9263 25.5899L44.2277 27.2034C43.7247 25.5906 43.0073 24.0469 42.0955 22.6152L47.0911 19.4891Z" fill="#94DA0A"/>
<path d="M49.7831 25.1453C50.4917 27.2781 50.9105 29.488 51.0278 31.7132L45.0561 31.8085C44.9679 30.135 44.653 28.473 44.12 26.869L49.7831 25.1453Z" fill="#13C883"/>
<path d="M7.24396 23.3814C5.74731 22.7192 5.02832 20.976 5.82691 19.5475C7.44931 16.6452 9.66784 14.1393 12.339 12.191C13.6915 11.2046 15.5472 11.7518 16.3652 13.2123V13.2123C17.1976 14.6984 16.6324 16.5595 15.3058 17.6281C13.826 18.8201 12.5529 20.2503 11.5349 21.864C10.6206 23.3133 8.81096 24.0747 7.24396 23.3814V23.3814Z" fill="#EE8D00"/>
<path d="M19.492 11.9548C18.8983 10.3498 19.7413 8.55005 21.4196 8.21526C25.3358 7.43406 29.4237 7.66168 33.3073 8.87955C34.837 9.35929 35.515 11.0758 34.9096 12.5603V12.5603C34.2759 14.1144 32.483 14.8098 30.859 14.3865C28.4089 13.7478 25.872 13.6243 23.4106 14.0242C21.776 14.2897 20.0665 13.5079 19.492 11.9548V11.9548Z" fill="#F4D523"/>
<path d="M36.7111 13.6687C37.4923 12.1949 39.3484 11.6441 40.691 12.6339C43.6307 14.8013 46.0808 17.5848 47.8618 20.7813C48.6677 22.2277 47.902 23.9881 46.3578 24.5856V24.5856C44.8587 25.1656 43.19 24.4248 42.3625 23.0468C41.1562 21.038 39.5917 19.2634 37.7524 17.8177C36.4913 16.8265 35.9598 15.0859 36.7111 13.6687V13.6687Z" fill="#94DA0A"/>
<path d="M47.6307 28.1357C49.2054 27.8341 50.7543 28.8384 50.9214 30.433C51.1919 33.0151 51.0547 35.6153 50.5093 38.1345C49.9857 40.5529 49.0948 42.8555 47.873 44.9642C47.0167 46.4419 45.0472 46.6633 43.7165 45.5927V45.5927C42.4189 44.5488 42.2245 42.6667 43.0044 41.1952C43.7596 39.7701 44.3197 38.2376 44.6661 36.6376C45.0136 35.0326 45.1408 33.384 45.0478 31.7368C44.9535 30.0656 45.9867 28.4505 47.6307 28.1357V28.1357Z" fill="#13C883"/>
<circle cx="11.6338" cy="16.7246" r="4.59014" fill="#222431" stroke="white" stroke-width="2"/>
</g>
</g>
<defs>
<clipPath id="clip0_828_9008">
<rect width="54" height="54" fill="white"/>
</clipPath>
<clipPath id="clip1_828_9008">
<rect width="70.072" height="59" fill="white" transform="translate(-7 -2)"/>
</clipPath>
</defs>
</svg>
