<svg width="25" height="25" viewBox="0 0 25 25" fill="none" xmlns="http://www.w3.org/2000/svg">
<path d="M2.13599 10.363C2.4766 7.78335 4.95176 2.62402 12.1275 2.62402C19.3031 2.62402 21.7783 7.78335 22.1189 10.363M2.13599 10.363C5.13343 7.85307 8.00219 9.38692 9.06189 10.4676M2.13599 10.363L8.83481 17.0562M9.06189 10.4676C9.60688 9.46361 11.3327 9.3172 12.1275 9.3172C12.9222 9.3172 14.648 9.46361 15.193 10.4676M9.06189 10.4676L11.1056 16.5333M22.1189 10.363C19.1215 7.85307 16.2527 9.38692 15.193 10.4676M22.1189 10.363L15.4201 17.0562M15.193 10.4676L13.1493 16.5333" stroke="#818181" stroke-width="1.28" stroke-linejoin="round"/>
<rect opacity="0.5" x="9.40222" y="18.0654" width="5.55082" height="4.44066" rx="0.677783" stroke="#818181" stroke-width="1.20645"/>
</svg>
