<svg width="25" height="25" viewBox="0 0 25 25" fill="none" xmlns="http://www.w3.org/2000/svg">
<path d="M12.9354 2.0918C5.75975 2.0918 3.28459 7.25112 2.94397 9.83078C5.94141 7.32084 8.81017 8.85469 9.86988 9.93536C10.4149 8.93139 12.1407 8.78497 12.9354 8.78497C13.7302 8.78497 15.456 8.93139 16.001 9.93536C17.0607 8.85469 19.9295 7.32084 22.9269 9.83078C22.5863 7.25112 20.1111 2.0918 12.9354 2.0918Z" fill="#348F6C"/>
<path d="M2.94397 9.83078C3.28459 7.25112 5.75975 2.0918 12.9354 2.0918C20.1111 2.0918 22.5863 7.25112 22.9269 9.83078M2.94397 9.83078C5.94141 7.32084 8.81017 8.85469 9.86988 9.93536M2.94397 9.83078L9.6428 16.524M9.86988 9.93536C10.4149 8.93139 12.1407 8.78497 12.9354 8.78497C13.7302 8.78497 15.456 8.93139 16.001 9.93536M9.86988 9.93536L11.9136 16.0011M22.9269 9.83078C19.9295 7.32084 17.0607 8.85469 16.001 9.93536M22.9269 9.83078L16.2281 16.524M16.001 9.93536L13.9573 16.0011" stroke="#348F6C" stroke-width="1.28" stroke-linejoin="round"/>
<rect opacity="0.5" x="10.2102" y="17.5332" width="5.55082" height="4.44066" rx="0.677783" fill="#348F6C" stroke="#348F6C" stroke-width="1.20645"/>
</svg>
