<svg width="24" height="24" viewBox="0 0 24 24" fill="none" xmlns="http://www.w3.org/2000/svg">
<path d="M8.96644 11.6665C9.44293 11.6665 9.8292 12.0517 9.8292 12.5269V13.5487C9.8292 14.0239 9.44293 14.4091 8.96644 14.4091C8.48995 14.4091 8.10368 14.0239 8.10368 13.5487V12.5269C8.10368 12.0517 8.48995 11.6665 8.96644 11.6665Z" fill="white"/>
<path d="M15.0327 11.6665C15.5092 11.6665 15.8955 12.0517 15.8955 12.5269V13.5487C15.8955 14.0239 15.5092 14.4091 15.0327 14.4091C14.5562 14.4091 14.17 14.0239 14.17 13.5487V12.5269C14.17 12.0517 14.5562 11.6665 15.0327 11.6665Z" fill="white"/>
<path fill-rule="evenodd" clip-rule="evenodd" d="M12.0131 1.61039C12.6682 1.61039 13.1994 2.14007 13.1994 2.79346C13.1994 3.31978 12.8547 3.76573 12.3782 3.91932L12.4927 5.24028H13.0915C13.6445 5.24028 14.1394 5.48807 14.4707 5.87837L14.5946 5.8921C15.6316 6.00693 16.6517 6.24192 17.6341 6.5923C19.2276 7.16058 20.398 8.52529 20.7178 10.1764C21.6025 10.293 22.2853 11.0481 22.2853 11.9623V14.1133C22.2853 15.0133 21.6236 15.759 20.759 15.8933C20.3909 17.5705 19.1942 18.9576 17.5688 19.5648L16.3269 20.0287L10.1296 22.3789C10.0237 22.4191 9.91032 22.3411 9.91032 22.2281V20.6302C9.91032 20.4352 9.77047 20.2681 9.57812 20.2333L7.80753 19.9129L7.08063 19.7449C5.15459 19.3 3.67703 17.7906 3.2559 15.8956C2.38358 15.768 1.71387 15.0187 1.71387 14.1133V11.9623C1.71387 11.0412 2.40706 10.2815 3.30158 10.1739C3.61251 8.51979 4.78401 7.1492 6.3838 6.58555C7.36551 6.23967 8.3845 6.00973 9.41989 5.90043L9.54821 5.88688C9.87958 5.49168 10.3776 5.24028 10.9346 5.24028H11.5065L11.6217 3.91055C11.1588 3.74928 10.8268 3.31008 10.8268 2.79346C10.8268 2.14007 11.3579 1.61039 12.0131 1.61039ZM12.0264 7.98165C11.9635 7.98163 11.9005 7.98225 11.8376 7.98354C11.5925 7.98858 11.3478 8.00695 10.8583 8.04373L9.76904 8.12557C9.68642 8.13178 9.60658 8.13779 9.52936 8.14364C8.45917 8.2247 7.89384 8.27686 7.42918 8.45592C6.39756 8.85347 5.60534 9.70034 5.2792 10.7542C5.23302 10.9035 5.2001 11.0617 5.17641 11.2419C5.17463 11.2554 5.17291 11.2691 5.17123 11.283C5.14569 11.493 5.13189 11.7328 5.12389 12.0219C5.12203 12.0889 5.12051 12.1586 5.1192 12.2311C5.11901 12.2418 5.1188 12.2525 5.11862 12.2634C5.1174 12.3353 5.11639 12.4101 5.11554 12.4878C5.11432 12.5994 5.11341 12.7172 5.11259 12.8419C5.11203 12.9264 5.11151 13.014 5.11098 13.105C5.11145 13.1845 5.11193 13.2612 5.11241 13.3353C5.11356 13.5144 5.11492 13.6783 5.11707 13.8294C5.12309 14.2531 5.13548 14.5753 5.16841 14.8452C5.18911 15.0149 5.21786 15.1639 5.25832 15.3045C5.58248 16.4308 6.43559 17.3295 7.5455 17.714C8.01542 17.8768 8.59014 17.9116 9.73958 17.9812L12.0264 18.1197L14.2067 17.9861C15.4022 17.9129 15.9999 17.8762 16.4875 17.7007C17.558 17.3154 18.3838 16.4496 18.7163 15.3641C18.7656 15.2032 18.7994 15.0313 18.8233 14.8315C18.8599 14.5251 18.8728 14.1529 18.8808 13.6535C18.8824 13.5518 18.8838 13.4448 18.8852 13.332C18.8862 13.2505 18.8872 13.1659 18.8882 13.0782C18.887 12.9796 18.8859 12.8849 18.8848 12.7936C18.8828 12.634 18.8807 12.4851 18.8781 12.3457C18.8768 12.2756 18.8753 12.208 18.8737 12.1426C18.8652 11.8047 18.8515 11.5266 18.8252 11.2862C18.8238 11.2729 18.8223 11.2596 18.8207 11.2465C18.792 11.0016 18.7493 10.796 18.6841 10.6051C18.3567 9.64612 17.6311 8.87416 16.6927 8.48638C16.2117 8.28765 15.6238 8.23045 14.5192 8.14553C14.4269 8.13843 14.331 8.13113 14.2312 8.12355L13.1945 8.04475C12.7051 8.00755 12.4603 7.98895 12.2152 7.9837C12.168 7.98269 12.1208 7.98205 12.0736 7.98179C12.0579 7.9817 12.0421 7.98166 12.0264 7.98165Z" fill="white"/>
</svg>
