<svg width="54" height="54" viewBox="0 0 54 54" fill="none" xmlns="http://www.w3.org/2000/svg">
<g filter="url(#filter0_d_929_1266)">
<circle cx="27" cy="24" r="17" fill="#348F6C"/>
</g>
<path d="M23.9664 23.6665C24.4429 23.6665 24.8292 24.0517 24.8292 24.5269V25.5487C24.8292 26.0239 24.4429 26.4091 23.9664 26.4091C23.49 26.4091 23.1037 26.0239 23.1037 25.5487V24.5269C23.1037 24.0517 23.49 23.6665 23.9664 23.6665Z" fill="white"/>
<path d="M30.0327 23.6665C30.5092 23.6665 30.8955 24.0517 30.8955 24.5269V25.5487C30.8955 26.0239 30.5092 26.4091 30.0327 26.4091C29.5562 26.4091 29.17 26.0239 29.17 25.5487V24.5269C29.17 24.0517 29.5562 23.6665 30.0327 23.6665Z" fill="white"/>
<path fill-rule="evenodd" clip-rule="evenodd" d="M27.0131 13.6104C27.6682 13.6104 28.1994 14.1401 28.1994 14.7935C28.1994 15.3198 27.8547 15.7657 27.3782 15.9193L27.4927 17.2403H28.0915C28.6445 17.2403 29.1394 17.4881 29.4707 17.8784L29.5946 17.8921C30.6316 18.0069 31.6517 18.2419 32.6341 18.5923C34.2276 19.1606 35.398 20.5253 35.7178 22.1764C36.6025 22.293 37.2853 23.0481 37.2853 23.9623V26.1133C37.2853 27.0133 36.6236 27.759 35.759 27.8933C35.3909 29.5705 34.1942 30.9576 32.5688 31.5648L31.3269 32.0287L25.1296 34.3789C25.0237 34.4191 24.9103 34.3411 24.9103 34.2281V32.6302C24.9103 32.4352 24.7705 32.2681 24.5781 32.2333L22.8075 31.9129L22.0806 31.7449C20.1546 31.3 18.677 29.7906 18.2559 27.8956C17.3836 27.768 16.7139 27.0187 16.7139 26.1133V23.9623C16.7139 23.0412 17.4071 22.2815 18.3016 22.1739C18.6125 20.5198 19.784 19.1492 21.3838 18.5855C22.3655 18.2397 23.3845 18.0097 24.4199 17.9004L24.5482 17.8869C24.8796 17.4917 25.3776 17.2403 25.9346 17.2403H26.5065L26.6217 15.9106C26.1588 15.7493 25.8268 15.3101 25.8268 14.7935C25.8268 14.1401 26.3579 13.6104 27.0131 13.6104ZM27.0264 19.9817C26.9635 19.9816 26.9005 19.9823 26.8376 19.9835C26.5925 19.9886 26.3478 20.007 25.8583 20.0437L24.769 20.1256C24.6864 20.1318 24.6066 20.1378 24.5294 20.1436C23.4592 20.2247 22.8938 20.2769 22.4292 20.4559C21.3976 20.8535 20.6053 21.7003 20.2792 22.7542C20.233 22.9035 20.2001 23.0617 20.1764 23.2419C20.1746 23.2554 20.1729 23.2691 20.1712 23.283C20.1457 23.493 20.1319 23.7328 20.1239 24.0219C20.122 24.0889 20.1205 24.1586 20.1192 24.2311C20.119 24.2418 20.1188 24.2525 20.1186 24.2634C20.1174 24.3353 20.1164 24.4101 20.1155 24.4878C20.1143 24.5994 20.1134 24.7172 20.1126 24.8419C20.112 24.9264 20.1115 25.014 20.111 25.105C20.1114 25.1845 20.1119 25.2612 20.1124 25.3353C20.1136 25.5144 20.1149 25.6783 20.1171 25.8294C20.1231 26.2531 20.1355 26.5753 20.1684 26.8452C20.1891 27.0149 20.2179 27.1639 20.2583 27.3045C20.5825 28.4308 21.4356 29.3295 22.5455 29.714C23.0154 29.8768 23.5901 29.9116 24.7396 29.9812L27.0264 30.1197L29.2067 29.9861C30.4022 29.9129 30.9999 29.8762 31.4875 29.7007C32.558 29.3154 33.3838 28.4496 33.7163 27.3641C33.7656 27.2032 33.7994 27.0313 33.8233 26.8315C33.8599 26.5251 33.8728 26.1529 33.8808 25.6535C33.8824 25.5518 33.8838 25.4448 33.8852 25.332C33.8862 25.2505 33.8872 25.1659 33.8882 25.0782C33.887 24.9796 33.8859 24.8849 33.8848 24.7936C33.8828 24.634 33.8807 24.4851 33.8781 24.3457C33.8768 24.2756 33.8753 24.208 33.8737 24.1426C33.8652 23.8047 33.8515 23.5266 33.8252 23.2862C33.8238 23.2729 33.8223 23.2596 33.8207 23.2465C33.792 23.0016 33.7493 22.796 33.6841 22.6051C33.3567 21.6461 32.6311 20.8742 31.6927 20.4864C31.2117 20.2877 30.6238 20.2305 29.5192 20.1455C29.4269 20.1384 29.331 20.1311 29.2312 20.1236L28.1945 20.0448C27.7051 20.0075 27.4603 19.989 27.2152 19.9837C27.168 19.9827 27.1208 19.9821 27.0736 19.9818C27.0579 19.9817 27.0421 19.9817 27.0264 19.9817Z" fill="white"/>
<defs>
<filter id="filter0_d_929_1266" x="0" y="0" width="54" height="54" filterUnits="userSpaceOnUse" color-interpolation-filters="sRGB">
<feFlood flood-opacity="0" result="BackgroundImageFix"/>
<feColorMatrix in="SourceAlpha" type="matrix" values="0 0 0 0 0 0 0 0 0 0 0 0 0 0 0 0 0 0 127 0" result="hardAlpha"/>
<feOffset dy="3"/>
<feGaussianBlur stdDeviation="5"/>
<feComposite in2="hardAlpha" operator="out"/>
<feColorMatrix type="matrix" values="0 0 0 0 0 0 0 0 0 0 0 0 0 0 0 0 0 0 0.15 0"/>
<feBlend mode="normal" in2="BackgroundImageFix" result="effect1_dropShadow_929_1266"/>
<feBlend mode="normal" in="SourceGraphic" in2="effect1_dropShadow_929_1266" result="shape"/>
</filter>
</defs>
</svg>
