<svg width="16" height="16" viewBox="0 0 16 16" fill="none" xmlns="http://www.w3.org/2000/svg">
<g clip-path="url(#clip0_828_5170)">
<path opacity="0.5" d="M1.33325 7.99998C1.33325 4.85728 1.33325 3.28593 2.30956 2.30962C3.28587 1.33331 4.85722 1.33331 7.99992 1.33331C11.1426 1.33331 12.714 1.33331 13.6903 2.30962C14.6666 3.28593 14.6666 4.85728 14.6666 7.99998C14.6666 11.1427 14.6666 12.714 13.6903 13.6903C12.714 14.6666 11.1426 14.6666 7.99992 14.6666C4.85722 14.6666 3.28587 14.6666 2.30956 13.6903C1.33325 12.714 1.33325 11.1427 1.33325 7.99998Z" stroke="#111111"/>
<circle cx="5.33333" cy="6.66665" r="1.33333" stroke="#111111"/>
<circle cx="1.33333" cy="1.33333" r="1.33333" transform="matrix(1 0 0 -1 9.33325 10.6667)" stroke="#111111"/>
<path d="M5.33325 9.33334V12.6667" stroke="#111111" stroke-linecap="round"/>
<path d="M10.6667 6.66666V3.33332" stroke="#111111" stroke-linecap="round"/>
<path d="M5.33325 3.33331V3.99998" stroke="#111111" stroke-linecap="round"/>
<path d="M10.6667 12.6667V12" stroke="#111111" stroke-linecap="round"/>
</g>
<defs>
<clipPath id="clip0_828_5170">
<rect width="16" height="16" rx="3.33333" fill="white"/>
</clipPath>
</defs>
</svg>
