<svg width="24" height="24" viewBox="0 0 24 24" fill="none" xmlns="http://www.w3.org/2000/svg">
<circle cx="9.89351" cy="8.26363" r="0.859654" stroke="#818181" stroke-width="0.666667"/>
<circle cx="6.81489" cy="8.26363" r="0.859654" stroke="#818181" stroke-width="0.666667"/>
<circle cx="13.052" cy="8.26363" r="0.859654" stroke="#C0C0C0" stroke-width="0.666667"/>
<path d="M1.99902 5.20568C1.99902 3.98752 2.98654 3 4.2047 3H15.583C16.8011 3 17.7886 3.98752 17.7886 5.20568V11.3207C17.7886 12.5389 16.8011 13.5264 15.583 13.5264H7.78855L4.00482 16.3642C3.8741 16.4622 3.69504 16.3332 3.74671 16.1782L4.63063 13.5264H4.2047C2.98654 13.5264 1.99902 12.5389 1.99902 11.3207V5.20568Z" stroke="#818181"/>
<path d="M8.3147 15.2597V15.6264C8.3147 16.8446 9.30221 17.8321 10.5204 17.8321H16.2095L19.9932 20.6699C20.1239 20.7679 20.303 20.6388 20.2513 20.4838L19.3674 17.8321H19.7933C21.0115 17.8321 21.999 16.8446 21.999 15.6264V9.51135C21.999 8.29318 21.0115 7.30566 19.7933 7.30566H18.8411" stroke="#C0C0C0"/>
</svg>
