<svg width="24" height="24" viewBox="0 0 24 24" fill="none" xmlns="http://www.w3.org/2000/svg">
<path d="M15.583 3C16.8011 3.00003 17.7891 3.98791 17.7891 5.20605V11.3203C17.7891 12.5385 16.8011 13.5263 15.583 13.5264H7.78809L4.00488 16.3643C3.87417 16.4623 3.6954 16.3327 3.74707 16.1777L4.63086 13.5264H4.20508C2.98692 13.5264 1.99902 12.5385 1.99902 11.3203V5.20605C1.99902 3.98789 2.98692 3 4.20508 3H15.583ZM6.81543 7.2373C6.24861 7.2373 5.78906 7.69685 5.78906 8.26367C5.78922 8.83036 6.24871 9.29004 6.81543 9.29004C7.38191 9.28975 7.84164 8.83018 7.8418 8.26367C7.8418 7.69703 7.382 7.23759 6.81543 7.2373ZM9.89355 7.2373C9.32673 7.2373 8.86719 7.69685 8.86719 8.26367C8.86734 8.83036 9.32683 9.29004 9.89355 9.29004C10.4603 9.29001 10.9198 8.83034 10.9199 8.26367C10.9199 7.69687 10.4604 7.23733 9.89355 7.2373ZM13.0518 7.2373C12.4849 7.2373 12.0254 7.69685 12.0254 8.26367C12.0255 8.83036 12.485 9.29004 13.0518 9.29004C13.6185 9.29001 14.078 8.83034 14.0781 8.26367C14.0781 7.69687 13.6186 7.23733 13.0518 7.2373ZM13.1475 8.78027C13.1164 8.78599 13.0845 8.79003 13.0518 8.79004C13.0845 8.79004 13.1164 8.78599 13.1475 8.78027ZM6.70898 8.7793C6.67652 8.77263 6.64522 8.76137 6.61523 8.74902C6.64537 8.76143 6.67634 8.77263 6.70898 8.7793ZM9.78711 8.7793C9.7548 8.77266 9.72419 8.76129 9.69434 8.74902C9.7242 8.76129 9.75478 8.77267 9.78711 8.7793ZM12.9453 8.7793C12.913 8.77266 12.8824 8.76129 12.8525 8.74902C12.8824 8.76129 12.913 8.77267 12.9453 8.7793ZM7.01074 8.75C6.99081 8.75803 6.97027 8.76396 6.94922 8.76953C6.97027 8.76396 6.99081 8.75803 7.01074 8.75ZM10.0869 8.75098C10.0694 8.75792 10.0516 8.76349 10.0332 8.76855C10.0516 8.76349 10.0694 8.75792 10.0869 8.75098ZM13.2451 8.75098C13.2276 8.75792 13.2098 8.76349 13.1914 8.76855C13.2098 8.76349 13.2276 8.75792 13.2451 8.75098ZM6.60254 8.74316C6.5781 8.73232 6.55454 8.72034 6.53223 8.70605C6.55454 8.72033 6.5781 8.73233 6.60254 8.74316ZM9.67871 8.74219C9.65459 8.73135 9.6314 8.71928 9.60938 8.70508C9.6314 8.71928 9.65459 8.73135 9.67871 8.74219ZM12.8369 8.74219C12.8128 8.73135 12.7896 8.71928 12.7676 8.70508C12.7896 8.71928 12.8128 8.73135 12.8369 8.74219ZM7.0918 8.70898C7.07484 8.71954 7.05724 8.7287 7.03906 8.7373C7.05724 8.72869 7.07484 8.71954 7.0918 8.70898ZM10.1699 8.70898C10.1548 8.71838 10.1391 8.72652 10.123 8.73438C10.1391 8.72652 10.1548 8.71838 10.1699 8.70898ZM13.3281 8.70898C13.313 8.71838 13.2973 8.72652 13.2812 8.73438C13.2973 8.72652 13.313 8.71838 13.3281 8.70898ZM9.46289 8.56543C9.49851 8.61611 9.54288 8.65994 9.59375 8.69531C9.54288 8.65993 9.49851 8.61612 9.46289 8.56543ZM12.6211 8.56543C12.6567 8.61611 12.7011 8.65994 12.752 8.69531C12.7011 8.65993 12.6567 8.61612 12.6211 8.56543ZM6.38477 8.56543C6.41976 8.61517 6.46297 8.65835 6.5127 8.69336C6.46298 8.65834 6.41975 8.61518 6.38477 8.56543ZM10.25 8.64746C10.2356 8.66086 10.221 8.67382 10.2051 8.68555C10.2209 8.67381 10.2356 8.66087 10.25 8.64746ZM7.17285 8.64746C7.15894 8.66042 7.14416 8.67218 7.12891 8.68359C7.14416 8.67218 7.15894 8.66043 7.17285 8.64746ZM13.4082 8.64746C13.3946 8.66006 13.3811 8.67247 13.3662 8.68359C13.3811 8.67246 13.3946 8.66007 13.4082 8.64746ZM10.3125 8.57812C10.3008 8.59373 10.2888 8.60886 10.2754 8.62305C10.2888 8.60886 10.3008 8.59373 10.3125 8.57812ZM7.23633 8.5752C7.22414 8.59163 7.21124 8.60719 7.19727 8.62207C7.21124 8.60718 7.22415 8.59163 7.23633 8.5752ZM13.4736 8.5752C13.4616 8.59144 13.4493 8.60733 13.4355 8.62207C13.4493 8.60733 13.4616 8.59144 13.4736 8.5752ZM10.377 8.4707C10.3655 8.49733 10.3505 8.52176 10.335 8.5459C10.3504 8.52176 10.3655 8.49732 10.377 8.4707ZM6.37109 8.54395C6.3563 8.5206 6.34305 8.49635 6.33203 8.4707C6.34306 8.49634 6.3563 8.5206 6.37109 8.54395ZM7.29785 8.4707C7.28682 8.49634 7.27359 8.5206 7.25879 8.54395C7.27357 8.5206 7.28683 8.49634 7.29785 8.4707ZM9.44922 8.54395C9.437 8.52463 9.42666 8.5043 9.41699 8.4834C9.42666 8.5043 9.437 8.52463 9.44922 8.54395ZM12.6074 8.54395C12.5952 8.52463 12.5849 8.5043 12.5752 8.4834C12.5849 8.5043 12.5952 8.52463 12.6074 8.54395ZM13.5352 8.4707C13.5241 8.49633 13.5109 8.52061 13.4961 8.54395C13.5109 8.52061 13.5242 8.49632 13.5352 8.4707ZM7.33008 8.16113C7.33662 8.19428 7.34082 8.22861 7.34082 8.26367C7.3408 8.30009 7.33812 8.33578 7.33105 8.37012C7.32426 8.40315 7.31248 8.43438 7.2998 8.46484C7.32564 8.40273 7.34078 8.33513 7.34082 8.26367C7.34082 8.22861 7.33662 8.19428 7.33008 8.16113ZM10.4092 8.37012C10.4024 8.40306 10.3915 8.43447 10.3789 8.46484C10.3916 8.43418 10.4024 8.40241 10.4092 8.36914V8.37012ZM13.5674 8.37012C13.5606 8.40306 13.5497 8.43447 13.5371 8.46484C13.5498 8.43418 13.5606 8.40241 13.5674 8.36914V8.37012ZM6.32715 8.45996C6.31749 8.43603 6.3098 8.41126 6.30371 8.38574C6.3098 8.41126 6.3175 8.43603 6.32715 8.45996ZM9.4043 8.45508C9.39355 8.42767 9.38399 8.39954 9.37793 8.37012V8.36914C9.384 8.3989 9.39344 8.42738 9.4043 8.45508ZM12.5625 8.45508C12.5518 8.42767 12.5422 8.39954 12.5361 8.37012V8.36914C12.5422 8.3989 12.5516 8.42738 12.5625 8.45508ZM10.4092 8.16504C10.4152 8.19698 10.4199 8.22997 10.4199 8.26367C10.4199 8.22997 10.4152 8.19698 10.4092 8.16504ZM13.5674 8.16113C13.5739 8.19425 13.5781 8.22864 13.5781 8.26367C13.5781 8.22864 13.5739 8.19425 13.5674 8.16113ZM10.3828 8.07129C10.3891 8.08736 10.3927 8.10429 10.3975 8.12109C10.3927 8.10429 10.3891 8.08736 10.3828 8.07129ZM13.5391 8.06641C13.5462 8.08403 13.5504 8.10258 13.5557 8.12109C13.5504 8.10258 13.5462 8.08403 13.5391 8.06641ZM7.25977 7.98535C7.27037 8.00229 7.27943 8.01993 7.28809 8.03809C7.27943 8.01993 7.27037 8.00229 7.25977 7.98535ZM10.3389 7.98535C10.3483 8.00043 10.3564 8.01617 10.3643 8.03223C10.3564 8.01618 10.3483 8.00043 10.3389 7.98535ZM13.4971 7.98535C13.5065 8.00043 13.5146 8.01617 13.5225 8.03223C13.5146 8.01618 13.5065 8.00043 13.4971 7.98535ZM10.2764 7.9043C10.29 7.91884 10.3025 7.93418 10.3145 7.9502C10.3025 7.93418 10.29 7.91883 10.2764 7.9043ZM13.4346 7.9043C13.4482 7.91884 13.4607 7.93418 13.4727 7.9502C13.4607 7.93418 13.4482 7.91883 13.4346 7.9043ZM7.20215 7.91016C7.21357 7.92267 7.22419 7.93564 7.23438 7.94922C7.22419 7.93564 7.21357 7.92267 7.20215 7.91016ZM10.1992 7.83691C10.2192 7.85129 10.2381 7.86681 10.2559 7.88379C10.2381 7.86682 10.2192 7.85129 10.1992 7.83691ZM13.3574 7.83691C13.3774 7.85129 13.3963 7.86681 13.4141 7.88379C13.3963 7.86682 13.3774 7.85129 13.3574 7.83691ZM7.12793 7.84277C7.14358 7.85444 7.15861 7.86658 7.17285 7.87988C7.15861 7.86658 7.14358 7.85444 7.12793 7.84277ZM10.1182 7.78906C10.1395 7.7992 10.16 7.81043 10.1797 7.82324C10.16 7.81043 10.1395 7.7992 10.1182 7.78906ZM13.2764 7.78906C13.2977 7.7992 13.3182 7.81043 13.3379 7.82324C13.3182 7.81043 13.2977 7.7992 13.2764 7.78906ZM7.03906 7.78906C7.05962 7.7988 7.07964 7.80907 7.09863 7.82129C7.07964 7.80908 7.05962 7.7988 7.03906 7.78906ZM6.92188 7.74805C6.95367 7.75461 6.98426 7.76435 7.01367 7.77637C6.98397 7.76423 6.95302 7.75462 6.9209 7.74805L6.81445 7.7373L6.92188 7.74805Z" fill="#0088E0"/>
<path opacity="0.5" d="M21.999 9.51135V15.6264C21.999 16.8446 21.0115 17.8321 19.7933 17.8321H19.3674L20.2513 20.4838C20.303 20.6388 20.1239 20.7679 19.9932 20.6699L16.2095 17.8321H10.5204C9.30221 17.8321 8.3147 16.8446 8.3147 15.6264V14.6756H16.6354C17.8536 14.6756 18.8411 13.6881 18.8411 12.4699V7.30566H19.7933C21.0115 7.30566 21.999 8.29318 21.999 9.51135Z" fill="#0088E0"/>
</svg>
