<svg width="24" height="24" viewBox="0 0 24 24" fill="none" xmlns="http://www.w3.org/2000/svg">
<g clip-path="url(#clip0_720_5327)">
<path d="M20.2153 13.75C20.2153 13.3358 19.8795 13 19.4653 13H16.4653C16.0511 13 15.7153 13.3358 15.7153 13.75V20.5H14.2153V4.25C14.2153 3.52169 14.2137 3.05091 14.1671 2.70403C14.1234 2.37872 14.0528 2.27676 13.9957 2.21967C13.9386 2.16258 13.8366 2.09197 13.5113 2.04823C13.1644 2.00159 12.6936 2 11.9653 2C11.237 2 10.7662 2.00159 10.4194 2.04823C10.0941 2.09197 9.99209 2.16258 9.935 2.21967C9.87791 2.27676 9.8073 2.37872 9.76356 2.70403C9.71692 3.05091 9.71533 3.52169 9.71533 4.25V20.5H8.21533V8.75C8.21533 8.33579 7.87955 8 7.46533 8H4.46533C4.05112 8 3.71533 8.33579 3.71533 8.75V20.5H2.21533H1.96533C1.55112 20.5 1.21533 20.8358 1.21533 21.25C1.21533 21.6642 1.55112 22 1.96533 22H21.9653C22.3795 22 22.7153 21.6642 22.7153 21.25C22.7153 20.8358 22.3795 20.5 21.9653 20.5H21.7153H20.2153V13.75Z" fill="#348F6C"/>
</g>
<defs>
<clipPath id="clip0_720_5327">
<rect width="24" height="24" fill="white"/>
</clipPath>
</defs>
</svg>
