<svg width="25" height="24" viewBox="0 0 25 24" fill="none" xmlns="http://www.w3.org/2000/svg">
<path d="M21.9127 21.166H3.57935" stroke="#818181" stroke-width="1.28" stroke-linecap="round"/>
<path opacity="0.5" d="M20.996 21.166V14.291C20.996 13.5316 20.3804 12.916 19.621 12.916H16.871C16.1116 12.916 15.496 13.5316 15.496 14.291V21.166" stroke="#818181" stroke-width="1.28"/>
<path d="M15.496 21.1663V5.58301C15.496 4.28665 15.496 3.63846 15.0932 3.23574C14.6905 2.83301 14.0423 2.83301 12.746 2.83301C11.4496 2.83301 10.8014 2.83301 10.3987 3.23574C9.99597 3.63846 9.99597 4.28665 9.99597 5.58301V21.1663" stroke="#818181" stroke-width="1.28"/>
<path opacity="0.5" d="M9.99597 21.1663V9.70801C9.99597 8.94862 9.38036 8.33301 8.62097 8.33301H5.87097C5.11158 8.33301 4.49597 8.94862 4.49597 9.70801V21.1663" stroke="#818181" stroke-width="1.28"/>
</svg>
