<svg width="25" height="25" viewBox="0 0 25 25" fill="none" xmlns="http://www.w3.org/2000/svg">
<g clip-path="url(#clip0_720_5331)">
<path fill-rule="evenodd" clip-rule="evenodd" d="M12.1505 3.14551H14.0873C15.7719 3.14549 17.1062 3.14548 18.1505 3.28588C19.2252 3.43037 20.0951 3.73481 20.7811 4.42081C21.4671 5.10681 21.7715 5.97668 21.916 7.0514C22.0564 8.09568 22.0564 9.43002 22.0564 11.1146V14.8847C22.0564 16.5693 22.0564 17.9037 21.916 18.9479C21.7715 20.0227 21.4671 20.8925 20.7811 21.5785C20.0951 22.2645 19.2252 22.569 18.1505 22.7135C17.1062 22.8539 15.7719 22.8539 14.0873 22.8538H12.1505C10.4659 22.8539 9.13157 22.8539 8.08729 22.7135C7.01257 22.569 6.1427 22.2645 5.4567 21.5785C4.7707 20.8925 4.46626 20.0227 4.32177 18.9479C4.18137 17.9037 4.18138 16.5693 4.1814 14.8847V11.1146C4.18138 9.43001 4.18137 8.09568 4.32177 7.0514C4.46626 5.97668 4.7707 5.10681 5.4567 4.42081C6.1427 3.73481 7.01257 3.43037 8.08729 3.28588C9.13157 3.14548 10.4659 3.14549 12.1505 3.14551ZM8.27051 4.64862C7.34826 4.77261 6.81692 5.00514 6.42897 5.39309C6.04103 5.78103 5.8085 6.31237 5.68451 7.23462C5.55786 8.17664 5.5564 9.41842 5.5564 11.1663V14.833C5.5564 16.5809 5.55786 17.8227 5.68451 18.7647C5.8085 19.687 6.04103 20.2183 6.42897 20.6063C6.81692 20.9942 7.34826 21.2267 8.27051 21.3507C9.21253 21.4774 10.4543 21.4788 12.2022 21.4788H14.0356C15.7835 21.4788 17.0253 21.4774 17.9673 21.3507C18.8895 21.2267 19.4209 20.9942 19.8088 20.6063C20.1968 20.2183 20.4293 19.687 20.5533 18.7647C20.6799 17.8227 20.6814 16.5809 20.6814 14.833V11.1663C20.6814 9.41842 20.6799 8.17665 20.5533 7.23462C20.4293 6.31237 20.1968 5.78103 19.8088 5.39309C19.4209 5.00514 18.8895 4.77261 17.9673 4.64862C17.0253 4.52197 15.7835 4.52051 14.0356 4.52051H12.2022C10.4543 4.52051 9.21253 4.52197 8.27051 4.64862ZM8.76473 9.33301C8.76473 8.95331 9.07253 8.64551 9.45223 8.64551H16.7856C17.1653 8.64551 17.4731 8.95331 17.4731 9.33301C17.4731 9.7127 17.1653 10.0205 16.7856 10.0205H9.45223C9.07253 10.0205 8.76473 9.7127 8.76473 9.33301ZM8.76473 12.9997C8.76473 12.62 9.07253 12.3122 9.45223 12.3122H16.7856C17.1653 12.3122 17.4731 12.62 17.4731 12.9997C17.4731 13.3794 17.1653 13.6872 16.7856 13.6872H9.45223C9.07253 13.6872 8.76473 13.3794 8.76473 12.9997ZM8.76473 16.6663C8.76473 16.2866 9.07253 15.9788 9.45223 15.9788H14.0356C14.4153 15.9788 14.7231 16.2866 14.7231 16.6663C14.7231 17.046 14.4153 17.3538 14.0356 17.3538H9.45223C9.07253 17.3538 8.76473 17.046 8.76473 16.6663Z" fill="#818181"/>
</g>
<defs>
<clipPath id="clip0_720_5331">
<rect width="24" height="24" fill="white" transform="translate(0.983154 0.576172)"/>
</clipPath>
</defs>
</svg>
