<svg width="25" height="25" viewBox="0 0 25 25" fill="none" xmlns="http://www.w3.org/2000/svg">
<g clip-path="url(#clip0_720_5335)">
<path fill-rule="evenodd" clip-rule="evenodd" d="M5.92099 3.90695C4.84705 4.98089 4.84705 6.70937 4.84705 10.1663V13.833C4.84705 17.29 4.84705 19.0185 5.92099 20.0924C6.99493 21.1663 8.72341 21.1663 12.1804 21.1663H14.0137C17.4707 21.1663 19.1992 21.1663 20.2731 20.0924C21.347 19.0185 21.347 17.29 21.347 13.833V10.1663C21.347 6.70937 21.347 4.98089 20.2731 3.90695C19.1992 2.83301 17.4707 2.83301 14.0137 2.83301H12.1804C8.72341 2.83301 6.99493 2.83301 5.92099 3.90695ZM8.74288 8.33301C8.74288 7.95331 9.05068 7.64551 9.43038 7.64551H16.7637C17.1434 7.64551 17.4512 7.95331 17.4512 8.33301C17.4512 8.7127 17.1434 9.02051 16.7637 9.02051H9.43038C9.05068 9.02051 8.74288 8.7127 8.74288 8.33301ZM8.74288 11.9997C8.74288 11.62 9.05068 11.3122 9.43038 11.3122H16.7637C17.1434 11.3122 17.4512 11.62 17.4512 11.9997C17.4512 12.3794 17.1434 12.6872 16.7637 12.6872H9.43038C9.05068 12.6872 8.74288 12.3794 8.74288 11.9997ZM9.43038 14.9788C9.05068 14.9788 8.74288 15.2866 8.74288 15.6663C8.74288 16.046 9.05068 16.3538 9.43038 16.3538H14.0137C14.3934 16.3538 14.7012 16.046 14.7012 15.6663C14.7012 15.2866 14.3934 14.9788 14.0137 14.9788H9.43038Z" fill="#348F6C"/>
</g>
<defs>
<clipPath id="clip0_720_5335">
<rect width="24" height="24" fill="white" transform="translate(0.646851 0.0185547)"/>
</clipPath>
</defs>
</svg>
