<svg width="24" height="24" viewBox="0 0 24 24" fill="none" xmlns="http://www.w3.org/2000/svg">
<path d="M6.99708 5.21767C7.40459 4.94537 7.83248 4.7092 8.27584 4.51065C9.53339 3.94748 10.1622 3.66589 10.9987 4.20783C11.8352 4.74976 11.8352 5.63875 11.8352 7.41671V8.79171C11.8352 10.5202 11.8352 11.3844 12.3721 11.9214C12.9091 12.4584 13.7734 12.4584 15.5018 12.4584H16.8768C18.6548 12.4584 19.5438 12.4584 20.0857 13.2949C20.6277 14.1314 20.3461 14.7602 19.7829 16.0177C19.5843 16.4611 19.3482 16.889 19.0759 17.2965C18.119 18.7285 16.7589 19.8447 15.1677 20.5038C13.5765 21.1629 11.8255 21.3354 10.1363 20.9994C8.44701 20.6634 6.89533 19.834 5.67745 18.6161C4.45956 17.3982 3.63018 15.8465 3.29416 14.1573C2.95815 12.468 3.1306 10.7171 3.78972 9.12584C4.44883 7.5346 5.565 6.17455 6.99708 5.21767Z" fill="#348F6C"/>
<path d="M20.9524 7.47952C20.2082 5.59055 18.7026 4.0849 16.8136 3.34074C15.4005 2.78406 14.1268 4.06416 14.1268 5.58294V9.24961C14.1268 9.75587 14.5372 10.1663 15.0435 10.1663H18.7102C20.2289 10.1663 21.509 8.8926 20.9524 7.47952Z" fill="#348F6C"/>
</svg>
