<svg width="36" height="36" viewBox="0 0 36 36" fill="none" xmlns="http://www.w3.org/2000/svg">
<path opacity="0.5" d="M18 3.75C25.8701 3.75 32.25 10.1299 32.25 18C32.25 25.8701 25.8701 32.25 18 32.25C10.1299 32.25 3.75 25.8701 3.75 18C3.75 10.1299 10.1299 3.75 18 3.75Z" stroke="#111111" stroke-width="1.5"/>
<path d="M25.2104 28.5168C23.1596 29.9256 20.6761 30.75 18 30.75C15.3239 30.75 12.8403 29.9255 10.7895 28.5167C9.88372 27.8945 9.49664 26.7092 10.0233 25.7447C11.115 23.7453 13.3646 22.5 18 22.5C22.6354 22.5 24.885 23.7454 25.9767 25.7448C26.5033 26.7094 26.1162 27.8946 25.2104 28.5168Z" fill="#111111"/>
<path d="M18.0001 18C20.4853 18 22.5001 15.9853 22.5001 13.5C22.5001 11.0147 20.4853 9 18.0001 9C15.5148 9 13.5001 11.0147 13.5001 13.5C13.5001 15.9853 15.5148 18 18.0001 18Z" fill="#111111"/>
</svg>
