<svg width="16" height="16" viewBox="0 0 16 16" fill="none" xmlns="http://www.w3.org/2000/svg">
<path fill-rule="evenodd" clip-rule="evenodd" d="M10.0827 3.2563C10.0913 3.26392 10.0999 3.27155 10.1085 3.27921L12.7844 5.65777C13.2837 6.10156 13.6976 6.46946 13.9818 6.80343C14.2805 7.15443 14.4931 7.53233 14.4931 7.99996C14.4931 8.46758 14.2805 8.84548 13.9818 9.19648C13.6976 9.53045 13.2837 9.89835 12.7844 10.3421L10.1085 12.7207C10.0999 12.7284 10.0913 12.736 10.0827 12.7436C9.86645 12.9359 9.6646 13.1154 9.49021 13.2306C9.31895 13.3436 9.00755 13.5079 8.6587 13.3512C8.30985 13.1946 8.22572 12.8527 8.19646 12.6496C8.16665 12.4427 8.1667 12.1726 8.16674 11.8832C8.16675 11.8717 8.16675 11.8602 8.16675 11.8487V10.803C7.19908 10.8697 6.2185 11.1267 5.36076 11.5447C4.35213 12.0361 3.54661 12.733 3.10945 13.5657C3.00252 13.7694 2.77041 13.8738 2.54706 13.8188C2.32371 13.7637 2.16675 13.5633 2.16675 13.3333C2.16675 10.186 3.08767 8.13666 4.40442 6.87678C5.55215 5.77862 6.95099 5.328 8.16675 5.2337V4.15119C8.16675 4.13967 8.16675 4.12817 8.16674 4.11671C8.1667 3.82729 8.16665 3.55717 8.19646 3.35034C8.22572 3.14722 8.30985 2.80536 8.6587 2.6487C9.00755 2.49205 9.31895 2.65629 9.49021 2.76936C9.6646 2.8845 9.86645 3.06398 10.0827 3.2563ZM9.16879 3.7846C9.24417 3.84919 9.33417 3.92887 9.44414 4.02662L12.0923 6.38057C12.6264 6.85529 12.9867 7.17715 13.2202 7.45149C13.4444 7.71496 13.4931 7.86883 13.4931 7.99996C13.4931 8.13108 13.4444 8.28495 13.2202 8.54842C12.9868 8.82276 12.6264 9.14462 12.0923 9.61934L9.44414 11.9733C9.33417 12.071 9.24417 12.1507 9.16879 12.2153C9.16699 12.1161 9.16675 11.9959 9.16675 11.8487V10.2857C9.16675 10.0095 8.94289 9.78567 8.66675 9.78567C7.3917 9.78567 6.06671 10.0883 4.92273 10.6457C4.31019 10.9442 3.73995 11.3207 3.25603 11.7711C3.50188 9.73983 4.22836 8.42924 5.09575 7.59932C6.17578 6.56593 7.54037 6.21424 8.66675 6.21424C8.94289 6.21424 9.16675 5.99038 9.16675 5.71424V4.15119C9.16675 4.00405 9.16699 3.88385 9.16879 3.7846Z" fill="#111111"/>
</svg>
