<svg width="24" height="24" viewBox="0 0 24 24" fill="none" xmlns="http://www.w3.org/2000/svg">
<path d="M20.0498 18.1807V21.0498H3.9502V18.1807H20.0498ZM4.93848 20.0273H19.0615V19.2041H4.93848V20.0273ZM4.93848 6.7373V7.02734H19.0615V6.7373L12 3.05273L4.93848 6.7373ZM20.0498 8.0498H3.9502V6.12305L3.97656 6.10938L11.9766 1.95605L12 1.94336L12.0234 1.95605L20.0234 6.10938L20.0498 6.12305V8.0498Z" fill="#818181" stroke="#818181" stroke-width="0.1"/>
<path d="M8.54395 17.4072H4.78906V9.82324H8.54395V17.4072ZM13.8779 17.4072H10.1221V9.82324H13.8779V17.4072ZM19.2109 17.4072H15.4551V9.82324H19.2109V17.4072ZM10.2217 17.3076H10.2227V9.92285H10.2217V17.3076ZM5.87793 16.2842H7.45508V10.9463H5.87793V16.2842ZM11.2109 16.2842H12.7891V10.9463H11.2109V16.2842ZM16.5449 16.2842H18.1221V10.9463H16.5449V16.2842Z" fill="#818181" fill-opacity="0.5"/>
</svg>
