<svg width="25" height="25" viewBox="0 0 25 25" fill="none" xmlns="http://www.w3.org/2000/svg">
<path d="M13 3C18.5228 3 23 7.47715 23 13C23 18.5228 18.5228 23 13 23C12.2358 23 11.4908 22.9142 10.7744 22.7513C10.3987 22.6659 10.1634 22.292 10.2488 21.9163C10.3342 21.5406 10.708 21.3052 11.0838 21.3907C11.6993 21.5306 12.3406 21.6047 13 21.6047C17.7522 21.6047 21.6047 17.7522 21.6047 13C21.6047 8.24778 17.7522 4.39535 13 4.39535C12.3406 4.39535 11.6993 4.46939 11.0838 4.60934C10.708 4.69476 10.3342 4.45942 10.2488 4.08369C10.1634 3.70797 10.3987 3.33413 10.7744 3.24871C11.4908 3.08585 12.2358 3 13 3Z" fill="#818181"/>
<path d="M4.75068 17.3593C5.07674 17.154 5.5075 17.2519 5.71281 17.578C6.40114 18.6712 7.32883 19.5989 8.42202 20.2872C8.74809 20.4925 8.84598 20.9233 8.64067 21.2493C8.43537 21.5754 8.00461 21.6733 7.67854 21.468C6.40871 20.6684 5.33159 19.5913 4.53203 18.3215C4.32672 17.9954 4.42462 17.5646 4.75068 17.3593Z" fill="#818181" fill-opacity="0.5"/>
<path d="M4.60934 11.0838C4.69476 10.708 4.45942 10.3342 4.08369 10.2488C3.70797 10.1634 3.33413 10.3987 3.24871 10.7744C3.08585 11.4908 3 12.2358 3 13C3 13.7642 3.08585 14.5092 3.24871 15.2256C3.33413 15.6013 3.70797 15.8366 4.08369 15.7512C4.45942 15.6658 4.69476 15.292 4.60934 14.9162C4.46939 14.3007 4.39535 13.6594 4.39535 13C4.39535 12.3406 4.46939 11.6993 4.60934 11.0838Z" fill="#818181" fill-opacity="0.5"/>
<path d="M8.64067 4.75068C8.84598 5.07674 8.74809 5.5075 8.42202 5.71281C7.32883 6.40114 6.40114 7.32883 5.71281 8.42202C5.5075 8.74809 5.07674 8.84598 4.75068 8.64067C4.42462 8.43537 4.32672 8.00461 4.53203 7.67854C5.33159 6.40871 6.40871 5.33159 7.67854 4.53203C8.00461 4.32672 8.43537 4.42462 8.64067 4.75068Z" fill="#818181" fill-opacity="0.5"/>
<path fill-rule="evenodd" clip-rule="evenodd" d="M9.51163 10.4072C9.51163 9.08393 10.9035 8.09164 12.1393 8.82132L16.5302 11.4137C17.7147 12.1131 17.7147 13.8861 16.5302 14.5855L12.1393 17.1779C10.9035 17.9075 9.51163 16.9153 9.51163 15.592V10.4072ZM11.1018 10.0275C10.9964 10.0934 10.907 10.2226 10.907 10.4072V15.592C10.907 15.7766 10.9964 15.9058 11.1018 15.9717C11.2038 16.0355 11.318 16.0424 11.4299 15.9763L15.8208 13.3839C15.9442 13.311 16.0233 13.1719 16.0233 12.9996C16.0233 12.8273 15.9442 12.6881 15.8208 12.6153L11.4299 10.0229C11.318 9.95679 11.2038 9.9637 11.1018 10.0275Z" fill="#818181"/>
</svg>
