<svg width="24" height="24" viewBox="0 0 24 24" fill="none" xmlns="http://www.w3.org/2000/svg">
<path d="M10.0569 2.23797C10.7733 2.07511 11.5183 1.98926 12.2825 1.98926C17.8053 1.98926 22.2825 6.46641 22.2825 11.9893C22.2825 17.5121 17.8053 21.9893 12.2825 21.9893C11.5183 21.9893 10.7733 21.9034 10.0569 21.7405C9.68117 21.6551 9.44583 21.2813 9.53125 20.9056C9.61667 20.5298 9.99051 20.2945 10.3662 20.3799C10.9818 20.5199 11.6231 20.5939 12.2825 20.5939C17.0347 20.5939 20.8871 16.7415 20.8871 11.9893C20.8871 7.23704 17.0347 3.38461 12.2825 3.38461C11.6231 3.38461 10.9818 3.45865 10.3662 3.5986C9.99051 3.68402 9.61667 3.44868 9.53125 3.07295C9.44583 2.69722 9.68117 2.32339 10.0569 2.23797Z" fill="#348F6C"/>
<path d="M7.92314 3.73994C8.12845 4.066 8.03056 4.49676 7.70449 4.70207C6.6113 5.3904 5.68361 6.31809 4.99528 7.41128C4.78997 7.73735 4.35921 7.83524 4.03315 7.62993C3.70709 7.42462 3.6092 6.99387 3.8145 6.6678C4.61406 5.39797 5.69118 4.32084 6.96101 3.52129C7.28708 3.31598 7.71784 3.41388 7.92314 3.73994Z" fill="#348F6C"/>
<path d="M3.89181 10.073C3.97723 9.69729 3.74189 9.32346 3.36616 9.23804C2.99044 9.15262 2.6166 9.38796 2.53118 9.76369C2.36832 10.4801 2.28247 11.2251 2.28247 11.9893C2.28247 12.7535 2.36832 13.4985 2.53118 14.2148C2.6166 14.5906 2.99044 14.8259 3.36616 14.7405C3.74189 14.6551 3.97723 14.2812 3.89181 13.9055C3.75187 13.2899 3.67782 12.6487 3.67782 11.9893C3.67782 11.3299 3.75187 10.6886 3.89181 10.073Z" fill="#348F6C"/>
<path d="M4.03315 16.3486C4.35921 16.1433 4.78997 16.2412 4.99528 16.5672C5.68361 17.6604 6.6113 18.5881 7.70449 19.2764C8.03056 19.4818 8.12845 19.9125 7.92314 20.2386C7.71784 20.5646 7.28708 20.6625 6.96102 20.4572C5.69118 19.6577 4.61406 18.5806 3.8145 17.3107C3.6092 16.9847 3.70709 16.5539 4.03315 16.3486Z" fill="#348F6C"/>
<path d="M15.458 11.0042C16.1852 11.4335 16.1852 12.545 15.458 12.9743L11.0671 15.5668C10.3603 15.984 9.49177 15.4409 9.49177 14.5817V9.39685C9.49177 8.5376 10.3603 7.99448 11.0671 8.41176L15.458 11.0042Z" fill="#348F6C"/>
</svg>
