<svg width="39" height="37" viewBox="0 0 39 37" fill="none" xmlns="http://www.w3.org/2000/svg">
<g clip-path="url(#clip0_720_5095)">
<path d="M19.8386 2.09174C12.6629 2.09174 10.1878 7.25106 9.84717 9.83072C12.8446 7.32078 15.7134 8.85463 16.7731 9.9353C17.3181 8.93132 19.0439 8.78491 19.8386 8.78491C20.6334 8.78491 22.3592 8.93132 22.9042 9.9353C23.9639 8.85463 26.8327 7.32078 29.8301 9.83072C29.4895 7.25106 27.0143 2.09174 19.8386 2.09174Z" fill="white"/>
<path d="M9.84717 9.83072C10.1878 7.25106 12.6629 2.09174 19.8386 2.09174C27.0143 2.09174 29.4895 7.25106 29.8301 9.83072M9.84717 9.83072C12.8446 7.32078 15.7134 8.85463 16.7731 9.9353M9.84717 9.83072L16.546 16.5239M16.7731 9.9353C17.3181 8.93132 19.0439 8.78491 19.8386 8.78491C20.6334 8.78491 22.3592 8.93132 22.9042 9.9353M16.7731 9.9353L18.8168 16.001M29.8301 9.83072C26.8327 7.32078 23.9639 8.85463 22.9042 9.9353M29.8301 9.83072L23.1313 16.5239M22.9042 9.9353L20.8605 16.001" stroke="white" stroke-width="1.28" stroke-linejoin="round"/>
<rect opacity="0.5" x="17.1135" y="17.5331" width="5.55082" height="4.44066" rx="0.677783" fill="white" stroke="white" stroke-width="1.20645"/>
</g>
<path d="M3.44474 33.9673H2.03849L4.59885 26.6946H6.22528L8.7892 33.9673H7.38295L5.44047 28.186H5.38366L3.44474 33.9673ZM3.4909 31.1157H7.32613V32.174H3.4909V31.1157ZM9.72936 33.9673V28.5127H11.0149V33.9673H9.72936ZM10.3757 27.7386C10.1721 27.7386 9.99688 27.6711 9.8501 27.5362C9.70332 27.3989 9.62993 27.2343 9.62993 27.0426C9.62993 26.8484 9.70332 26.6839 9.8501 26.549C9.99688 26.4117 10.1721 26.343 10.3757 26.343C10.5816 26.343 10.7568 26.4117 10.9012 26.549C11.048 26.6839 11.1214 26.8484 11.1214 27.0426C11.1214 27.2343 11.048 27.3989 10.9012 27.5362C10.7568 27.6711 10.5816 27.7386 10.3757 27.7386ZM12.3368 33.9673V28.5127H13.5832V29.4218H13.64C13.7395 29.107 13.9099 28.8643 14.1514 28.6938C14.3953 28.521 14.6734 28.4346 14.9859 28.4346C15.057 28.4346 15.1363 28.4382 15.2239 28.4453C15.3138 28.45 15.3884 28.4583 15.4476 28.4701V29.6527C15.3931 29.6337 15.3067 29.6171 15.1883 29.6029C15.0723 29.5864 14.9599 29.5781 14.851 29.5781C14.6166 29.5781 14.4059 29.629 14.2189 29.7308C14.0342 29.8302 13.8886 29.9687 13.7821 30.1463C13.6756 30.3238 13.6223 30.5286 13.6223 30.7606V33.9673H12.3368ZM18.1012 34.0632C17.6727 34.0632 17.2891 33.9531 16.9506 33.7329C16.6121 33.5127 16.3445 33.1931 16.148 32.7741C15.9515 32.3551 15.8533 31.8461 15.8533 31.2471C15.8533 30.6411 15.9527 30.1297 16.1516 29.713C16.3528 29.294 16.6239 28.9779 16.9648 28.7649C17.3057 28.5494 17.6857 28.4417 18.1047 28.4417C18.4243 28.4417 18.6871 28.4962 18.8931 28.6051C19.099 28.7116 19.2624 28.8406 19.3831 28.9921C19.5039 29.1413 19.5974 29.2822 19.6637 29.4147H19.7169V26.6946H21.006V33.9673H19.7418V33.1079H19.6637C19.5974 33.2405 19.5015 33.3813 19.376 33.5305C19.2505 33.6773 19.0848 33.8027 18.8789 33.9069C18.6729 34.0111 18.4137 34.0632 18.1012 34.0632ZM18.4598 33.0085C18.7321 33.0085 18.9641 32.9351 19.1559 32.7883C19.3476 32.6392 19.4932 32.432 19.5926 32.1669C19.6921 31.9017 19.7418 31.5928 19.7418 31.24C19.7418 30.8873 19.6921 30.5807 19.5926 30.3203C19.4956 30.0599 19.3512 29.8574 19.1594 29.713C18.97 29.5686 18.7368 29.4964 18.4598 29.4964C18.1734 29.4964 17.9343 29.571 17.7425 29.7201C17.5507 29.8693 17.4063 30.0752 17.3093 30.338C17.2122 30.6008 17.1637 30.9015 17.1637 31.24C17.1637 31.5809 17.2122 31.8851 17.3093 32.1527C17.4087 32.4178 17.5543 32.6273 17.746 32.7812C17.9402 32.9327 18.1781 33.0085 18.4598 33.0085ZM22.3758 33.9673V28.5127H23.6223V29.4218H23.6791C23.7785 29.107 23.949 28.8643 24.1905 28.6938C24.4343 28.521 24.7125 28.4346 25.025 28.4346C25.096 28.4346 25.1753 28.4382 25.2629 28.4453C25.3529 28.45 25.4275 28.4583 25.4866 28.4701V29.6527C25.4322 29.6337 25.3458 29.6171 25.2274 29.6029C25.1114 29.5864 24.9989 29.5781 24.89 29.5781C24.6557 29.5781 24.445 29.629 24.2579 29.7308C24.0733 29.8302 23.9277 29.9687 23.8212 30.1463C23.7146 30.3238 23.6614 30.5286 23.6614 30.7606V33.9673H22.3758ZM28.4953 34.0738C27.9627 34.0738 27.501 33.9566 27.1104 33.7223C26.7198 33.4879 26.4167 33.16 26.2013 32.7386C25.9882 32.3172 25.8817 31.8248 25.8817 31.2613C25.8817 30.6979 25.9882 30.2043 26.2013 29.7805C26.4167 29.3567 26.7198 29.0277 27.1104 28.7933C27.501 28.5589 27.9627 28.4417 28.4953 28.4417C29.028 28.4417 29.4897 28.5589 29.8803 28.7933C30.2709 29.0277 30.5728 29.3567 30.7858 29.7805C31.0013 30.2043 31.109 30.6979 31.109 31.2613C31.109 31.8248 31.0013 32.3172 30.7858 32.7386C30.5728 33.16 30.2709 33.4879 29.8803 33.7223C29.4897 33.9566 29.028 34.0738 28.4953 34.0738ZM28.5024 33.044C28.7913 33.044 29.0327 32.9647 29.2269 32.8061C29.421 32.6451 29.5654 32.4296 29.6601 32.1598C29.7572 31.8899 29.8057 31.5892 29.8057 31.2578C29.8057 30.924 29.7572 30.6221 29.6601 30.3522C29.5654 30.08 29.421 29.8634 29.2269 29.7024C29.0327 29.5414 28.7913 29.4609 28.5024 29.4609C28.2065 29.4609 27.9603 29.5414 27.7638 29.7024C27.5697 29.8634 27.4241 30.08 27.327 30.3522C27.2323 30.6221 27.185 30.924 27.185 31.2578C27.185 31.5892 27.2323 31.8899 27.327 32.1598C27.4241 32.4296 27.5697 32.6451 27.7638 32.8061C27.9603 32.9647 28.2065 33.044 28.5024 33.044ZM32.2001 36.0127V28.5127H33.4643V29.4147H33.5388C33.6051 29.2822 33.6986 29.1413 33.8194 28.9921C33.9401 28.8406 34.1035 28.7116 34.3094 28.6051C34.5154 28.4962 34.7782 28.4417 35.0978 28.4417C35.5192 28.4417 35.8992 28.5494 36.2377 28.7649C36.5786 28.9779 36.8485 29.294 37.0474 29.713C37.2486 30.1297 37.3492 30.6411 37.3492 31.2471C37.3492 31.8461 37.251 32.3551 37.0545 32.7741C36.858 33.1931 36.5905 33.5127 36.2519 33.7329C35.9134 33.9531 35.5298 34.0632 35.1013 34.0632C34.7888 34.0632 34.5296 34.0111 34.3236 33.9069C34.1177 33.8027 33.952 33.6773 33.8265 33.5305C33.7034 33.3813 33.6075 33.2405 33.5388 33.1079H33.4856V36.0127H32.2001ZM33.4607 31.24C33.4607 31.5928 33.5104 31.9017 33.6099 32.1669C33.7117 32.432 33.8573 32.6392 34.0467 32.7883C34.2384 32.9351 34.4704 33.0085 34.7427 33.0085C35.0268 33.0085 35.2647 32.9327 35.4565 32.7812C35.6482 32.6273 35.7926 32.4178 35.8897 32.1527C35.9891 31.8851 36.0388 31.5809 36.0388 31.24C36.0388 30.9015 35.9903 30.6008 35.8932 30.338C35.7962 30.0752 35.6518 29.8693 35.46 29.7201C35.2682 29.571 35.0291 29.4964 34.7427 29.4964C34.4681 29.4964 34.2349 29.5686 34.0431 29.713C33.8513 29.8574 33.7057 30.0599 33.6063 30.3203C33.5092 30.5807 33.4607 30.8873 33.4607 31.24Z" fill="white"/>
<defs>
<clipPath id="clip0_720_5095">
<rect width="23" height="23" fill="white" transform="translate(7.83008 0.0327148)"/>
</clipPath>
</defs>
</svg>
