<svg width="37" height="37" viewBox="0 0 37 37" fill="none" xmlns="http://www.w3.org/2000/svg">
<g clip-path="url(#clip0_720_5037)">
<path d="M9.13599 10.3635C9.4766 7.78383 11.9518 2.62451 19.1275 2.62451C26.3031 2.62451 28.7783 7.78383 29.1189 10.3635M9.13599 10.3635C12.1334 7.85355 15.0022 9.38741 16.0619 10.4681M9.13599 10.3635L15.8348 17.0567M16.0619 10.4681C16.6069 9.4641 18.3327 9.31769 19.1275 9.31769C19.9222 9.31769 21.648 9.4641 22.193 10.4681M16.0619 10.4681L18.1056 16.5338M29.1189 10.3635C26.1215 7.85355 23.2527 9.38741 22.193 10.4681M29.1189 10.3635L22.4201 17.0567M22.193 10.4681L20.1493 16.5338" stroke="white" stroke-width="1.28" stroke-linejoin="round"/>
<rect opacity="0.5" x="16.4023" y="18.0659" width="5.55082" height="4.44066" rx="0.677783" stroke="white" stroke-width="1.20645"/>
</g>
<path d="M2.76565 34.4836H1.84235L4.51281 27.2109H5.4219L8.09235 34.4836H7.16906L4.99576 28.3614H4.93894L2.76565 34.4836ZM3.10656 31.6427H6.82815V32.4239H3.10656V31.6427ZM9.17012 34.4836V29.029H10.0082V34.4836H9.17012ZM9.59626 28.1199C9.43291 28.1199 9.29204 28.0643 9.17367 27.953C9.05767 27.8418 8.99967 27.708 8.99967 27.5518C8.99967 27.3955 9.05767 27.2618 9.17367 27.1505C9.29204 27.0392 9.43291 26.9836 9.59626 26.9836C9.75961 26.9836 9.89929 27.0392 10.0153 27.1505C10.1337 27.2618 10.1928 27.3955 10.1928 27.5518C10.1928 27.708 10.1337 27.8418 10.0153 27.953C9.89929 28.0643 9.75961 28.1199 9.59626 28.1199ZM11.5432 34.4836V29.029H12.3528V29.8529H12.4096C12.5091 29.583 12.689 29.364 12.9494 29.1959C13.2098 29.0279 13.5034 28.9438 13.8301 28.9438C13.8917 28.9438 13.9686 28.945 14.0609 28.9474C14.1533 28.9497 14.2231 28.9533 14.2704 28.958V29.8103C14.242 29.8032 14.1769 29.7925 14.0751 29.7783C13.9757 29.7618 13.8703 29.7535 13.7591 29.7535C13.4939 29.7535 13.2572 29.8091 13.0489 29.9204C12.8429 30.0293 12.6795 30.1808 12.5588 30.3749C12.4404 30.5667 12.3812 30.7857 12.3812 31.0319V34.4836H11.5432ZM17.1575 34.5972C16.703 34.5972 16.3017 34.4824 15.9537 34.2528C15.6057 34.0208 15.3334 33.694 15.1369 33.2726C14.9404 32.8489 14.8422 32.3482 14.8422 31.7705C14.8422 31.1976 14.9404 30.7004 15.1369 30.279C15.3334 29.8576 15.6069 29.5321 15.9572 29.3025C16.3076 29.0728 16.7124 28.958 17.1717 28.958C17.5268 28.958 17.8074 29.0172 18.0133 29.1356C18.2217 29.2516 18.3803 29.3841 18.4892 29.5333C18.6005 29.6801 18.6869 29.8008 18.7484 29.8955H18.8194V27.2109H19.6575V34.4836H18.8479V33.6455H18.7484C18.6869 33.7449 18.5993 33.8704 18.4856 34.0219C18.372 34.1711 18.2098 34.3048 17.9991 34.4232C17.7884 34.5392 17.5079 34.5972 17.1575 34.5972ZM17.2712 33.8444C17.6073 33.8444 17.8914 33.7568 18.1234 33.5816C18.3554 33.404 18.5318 33.159 18.6525 32.8465C18.7733 32.5316 18.8337 32.1682 18.8337 31.7563C18.8337 31.3491 18.7745 30.9928 18.6561 30.6874C18.5377 30.3797 18.3625 30.1405 18.1305 29.9701C17.8985 29.7973 17.6121 29.7109 17.2712 29.7109C16.916 29.7109 16.6201 29.802 16.3834 29.9843C16.149 30.1642 15.9726 30.4092 15.8542 30.7194C15.7382 31.0271 15.6802 31.3728 15.6802 31.7563C15.6802 32.1446 15.7394 32.4973 15.8578 32.8145C15.9785 33.1294 16.1561 33.3804 16.3905 33.5674C16.6272 33.752 16.9208 33.8444 17.2712 33.8444ZM21.3088 34.4836V29.029H22.1185V29.8529H22.1753C22.2747 29.583 22.4546 29.364 22.715 29.1959C22.9755 29.0279 23.269 28.9438 23.5957 28.9438C23.6573 28.9438 23.7342 28.945 23.8265 28.9474C23.9189 28.9497 23.9887 28.9533 24.0361 28.958V29.8103C24.0077 29.8032 23.9426 29.7925 23.8408 29.7783C23.7413 29.7618 23.636 29.7535 23.5247 29.7535C23.2596 29.7535 23.0228 29.8091 22.8145 29.9204C22.6085 30.0293 22.4452 30.1808 22.3244 30.3749C22.206 30.5667 22.1469 30.7857 22.1469 31.0319V34.4836H21.3088ZM27.0794 34.5972C26.587 34.5972 26.1549 34.48 25.7832 34.2457C25.4139 34.0113 25.1251 33.6834 24.9167 33.262C24.7108 32.8406 24.6078 32.3482 24.6078 31.7847C24.6078 31.2165 24.7108 30.7206 24.9167 30.2968C25.1251 29.873 25.4139 29.544 25.7832 29.3096C26.1549 29.0752 26.587 28.958 27.0794 28.958C27.5718 28.958 28.0027 29.0752 28.372 29.3096C28.7437 29.544 29.0325 29.873 29.2385 30.2968C29.4468 30.7206 29.551 31.2165 29.551 31.7847C29.551 32.3482 29.4468 32.8406 29.2385 33.262C29.0325 33.6834 28.7437 34.0113 28.372 34.2457C28.0027 34.48 27.5718 34.5972 27.0794 34.5972ZM27.0794 33.8444C27.4534 33.8444 27.7612 33.7485 28.0027 33.5567C28.2442 33.365 28.4229 33.1128 28.5389 32.8003C28.6549 32.4878 28.7129 32.1493 28.7129 31.7847C28.7129 31.4201 28.6549 31.0804 28.5389 30.7655C28.4229 30.4507 28.2442 30.1962 28.0027 30.002C27.7612 29.8079 27.4534 29.7109 27.0794 29.7109C26.7053 29.7109 26.3976 29.8079 26.1561 30.002C25.9146 30.1962 25.7359 30.4507 25.6199 30.7655C25.5039 31.0804 25.4459 31.4201 25.4459 31.7847C25.4459 32.1493 25.5039 32.4878 25.6199 32.8003C25.7359 33.1128 25.9146 33.365 26.1561 33.5567C26.3976 33.7485 26.7053 33.8444 27.0794 33.8444ZM30.8303 36.529V29.029H31.6399V29.8955H31.7394C31.8009 29.8008 31.8861 29.6801 31.9951 29.5333C32.1063 29.3841 32.2649 29.2516 32.4709 29.1356C32.6792 29.0172 32.961 28.958 33.3161 28.958C33.7754 28.958 34.1802 29.0728 34.5306 29.3025C34.8809 29.5321 35.1544 29.8576 35.3509 30.279C35.5474 30.7004 35.6456 31.1976 35.6456 31.7705C35.6456 32.3482 35.5474 32.8489 35.3509 33.2726C35.1544 33.694 34.8821 34.0208 34.5341 34.2528C34.1861 34.4824 33.7848 34.5972 33.3303 34.5972C32.9799 34.5972 32.6994 34.5392 32.4887 34.4232C32.278 34.3048 32.1158 34.1711 32.0022 34.0219C31.8885 33.8704 31.8009 33.7449 31.7394 33.6455H31.6683V36.529H30.8303ZM31.6541 31.7563C31.6541 32.1682 31.7145 32.5316 31.8352 32.8465C31.956 33.159 32.1324 33.404 32.3644 33.5816C32.5964 33.7568 32.8805 33.8444 33.2166 33.8444C33.567 33.8444 33.8594 33.752 34.0938 33.5674C34.3305 33.3804 34.5081 33.1294 34.6264 32.8145C34.7472 32.4973 34.8076 32.1446 34.8076 31.7563C34.8076 31.3728 34.7484 31.0271 34.63 30.7194C34.514 30.4092 34.3376 30.1642 34.1009 29.9843C33.8665 29.802 33.5718 29.7109 33.2166 29.7109C32.8757 29.7109 32.5893 29.7973 32.3573 29.9701C32.1253 30.1405 31.9501 30.3797 31.8317 30.6874C31.7133 30.9928 31.6541 31.3491 31.6541 31.7563Z" fill="white"/>
<defs>
<clipPath id="clip0_720_5037">
<rect width="23" height="23" fill="white" transform="translate(7.1189 0.565491)"/>
</clipPath>
</defs>
</svg>
