<svg width="25" height="37" viewBox="0 0 25 37" fill="none" xmlns="http://www.w3.org/2000/svg">
<path d="M11.6671 21.2395L12.2179 21.5655L12.2179 21.5655L11.6671 21.2395ZM11.9049 20.8377L11.354 20.5117L11.354 20.5117L11.9049 20.8377ZM9.83547 20.8377L10.3863 20.5117L10.3863 20.5117L9.83547 20.8377ZM10.0733 21.2395L9.52243 21.5655L9.52243 21.5655L10.0733 21.2395ZM3.81597 17.225L4.40737 16.98L4.40737 16.98L3.81597 17.225ZM7.46873 19.4747L7.48919 18.8349L7.48919 18.8349L7.46873 19.4747ZM5.80036 19.2094L5.5554 19.8008L5.5554 19.8008L5.80036 19.2094ZM17.9244 17.225L18.5158 17.47L18.5158 17.47L17.9244 17.225ZM14.2716 19.4747L14.2512 18.8349L14.2512 18.8349L14.2716 19.4747ZM15.94 19.2094L16.185 19.8008L16.185 19.8008L15.94 19.2094ZM16.4527 7.56211L16.7872 7.01632L16.7872 7.01632L16.4527 7.56211ZM17.6632 8.77264L18.209 8.43818L18.209 8.43817L17.6632 8.77264ZM5.2877 7.56211L4.95324 7.01632L4.95324 7.01632L5.2877 7.56211ZM4.07718 8.77264L3.53139 8.43818L3.53139 8.43818L4.07718 8.77264ZM8.96021 19.6923L8.63431 20.2432L8.63431 20.2432L8.96021 19.6923ZM12.2179 21.5655L12.4557 21.1638L11.354 20.5117L11.1162 20.9134L12.2179 21.5655ZM9.28462 21.1638L9.52243 21.5655L10.6241 20.9134L10.3863 20.5117L9.28462 21.1638ZM11.1162 20.9134C11.0098 21.0933 10.7306 21.0933 10.6241 20.9134L9.52243 21.5655C10.1246 22.5829 11.6158 22.5829 12.2179 21.5655L11.1162 20.9134ZM9.7702 7.66191H11.9702V6.38167H9.7702V7.66191ZM17.5634 13.2551V13.9885H18.8436V13.2551H17.5634ZM4.17698 13.9885V13.2551H2.89675V13.9885H4.17698ZM2.89675 13.9885C2.89675 14.834 2.8964 15.5001 2.93312 16.0383C2.97023 16.5822 3.04733 17.0421 3.22458 17.47L4.40737 16.98C4.3055 16.7341 4.24305 16.4299 4.21039 15.9512C4.17733 15.4667 4.17698 14.8515 4.17698 13.9885H2.89675ZM7.48919 18.8349C6.76183 18.8116 6.35995 18.7483 6.04532 18.618L5.5554 19.8008C6.09422 20.024 6.6905 20.0903 7.44826 20.1145L7.48919 18.8349ZM3.22458 17.47C3.66169 18.5253 4.50011 19.3637 5.5554 19.8008L6.04532 18.618C5.30373 18.3108 4.71454 17.7216 4.40737 16.98L3.22458 17.47ZM17.5634 13.9885C17.5634 14.8515 17.5631 15.4667 17.53 15.9512C17.4973 16.4299 17.4349 16.7341 17.333 16.98L18.5158 17.47C18.6931 17.0421 18.7702 16.5822 18.8073 16.0383C18.844 15.5001 18.8436 14.834 18.8436 13.9885H17.5634ZM14.2921 20.1145C15.0499 20.0903 15.6462 20.024 16.185 19.8008L15.6951 18.618C15.3804 18.7483 14.9786 18.8116 14.2512 18.8349L14.2921 20.1145ZM17.333 16.98C17.0259 17.7216 16.4367 18.3108 15.6951 18.618L16.185 19.8008C17.2403 19.3637 18.0787 18.5253 18.5158 17.47L17.333 16.98ZM11.9702 7.66191C13.1829 7.66191 14.0474 7.66258 14.7204 7.72657C15.3839 7.78966 15.7949 7.90973 16.1182 8.1079L16.7872 7.01632C16.2288 6.67417 15.5988 6.52408 14.8416 6.45209C14.0939 6.381 13.1581 6.38167 11.9702 6.38167V7.66191ZM18.8436 13.2551C18.8436 12.0673 18.8443 11.1314 18.7732 10.3838C18.7012 9.62655 18.5512 8.99652 18.209 8.43818L17.1174 9.1071C17.3156 9.43048 17.4357 9.84144 17.4987 10.5049C17.5627 11.1779 17.5634 12.0425 17.5634 13.2551H18.8436ZM16.1182 8.1079C16.5255 8.35746 16.8679 8.69985 17.1174 9.1071L18.209 8.43817C17.8539 7.85867 17.3667 7.37144 16.7872 7.01632L16.1182 8.1079ZM9.7702 6.38167C8.58234 6.38167 7.64649 6.381 6.89881 6.45209C6.14161 6.52408 5.51158 6.67417 4.95324 7.01632L5.62217 8.1079C5.94554 7.90973 6.3565 7.78966 7.01999 7.72657C7.69301 7.66258 8.55755 7.66191 9.7702 7.66191V6.38167ZM4.17698 13.2551C4.17698 12.0425 4.17766 11.1779 4.24165 10.5049C4.30473 9.84144 4.42481 9.43048 4.62298 9.1071L3.53139 8.43818C3.18924 8.99652 3.03916 9.62655 2.96716 10.3838C2.89607 11.1314 2.89675 12.0673 2.89675 13.2551H4.17698ZM4.95324 7.01632C4.37374 7.37144 3.88651 7.85867 3.53139 8.43818L4.62298 9.1071C4.87253 8.69985 5.21493 8.35746 5.62217 8.1079L4.95324 7.01632ZM10.3863 20.5117C10.2018 20.1999 10.0416 19.928 9.88667 19.7147C9.7241 19.4909 9.53986 19.2914 9.28611 19.1413L8.63431 20.2432C8.68412 20.2727 8.74695 20.324 8.85084 20.467C8.96233 20.6205 9.08801 20.8316 9.28462 21.1638L10.3863 20.5117ZM7.44826 20.1145C7.85574 20.1275 8.11923 20.1366 8.3201 20.1611C8.5109 20.1843 8.58845 20.2161 8.63431 20.2432L9.28611 19.1413C9.02841 18.9889 8.75619 18.9245 8.47512 18.8902C8.20412 18.8572 7.87366 18.8472 7.48919 18.8349L7.44826 20.1145ZM12.4557 21.1638C12.6524 20.8316 12.778 20.6205 12.8895 20.467C12.9934 20.324 13.0562 20.2727 13.1061 20.2432L12.4543 19.1413C12.2005 19.2914 12.0163 19.4909 11.8537 19.7147C11.6987 19.928 11.5386 20.1999 11.354 20.5117L12.4557 21.1638ZM14.2512 18.8349C13.8667 18.8472 13.5362 18.8572 13.2653 18.8902C12.9842 18.9245 12.712 18.9889 12.4543 19.1413L13.1061 20.2432C13.1519 20.2161 13.2295 20.1843 13.4203 20.1611C13.6211 20.1365 13.8846 20.1275 14.2921 20.1145L14.2512 18.8349Z" fill="white"/>
<path opacity="0.5" d="M21.6085 12.9206L22.1999 13.1656L22.1999 13.1656L21.6085 12.9206ZM19.7481 14.781L19.9931 15.3724L19.9931 15.3724L19.7481 14.781ZM20.2287 3.86165L19.8943 4.40744L19.8943 4.40744L20.2287 3.86165ZM21.3636 4.99652L21.9094 4.66206L21.9094 4.66206L21.3636 4.99652ZM9.76156 3.86165L9.4271 3.31586L9.4271 3.31586L9.76156 3.86165ZM8.6267 4.99652L8.08091 4.66206L8.08091 4.66206L8.6267 4.99652ZM13.9639 3.99522H16.0264V2.71498H13.9639V3.99522ZM21.23 9.19888V9.88638H22.5103V9.19888H21.23ZM21.23 9.88638C21.23 10.696 21.2297 11.2711 21.1988 11.7237C21.1683 12.1705 21.1102 12.4508 21.0171 12.6757L22.1999 13.1656C22.3684 12.7587 22.4411 12.3228 22.4761 11.8108C22.5106 11.3046 22.5103 10.6785 22.5103 9.88638H21.23ZM21.0171 12.6757C20.7332 13.3611 20.1886 13.9057 19.5032 14.1896L19.9931 15.3724C20.9922 14.9585 21.786 14.1647 22.1999 13.1656L21.0171 12.6757ZM16.0264 3.99522C17.164 3.99522 17.9723 3.9959 18.6009 4.05567C19.22 4.11453 19.5985 4.22616 19.8943 4.40744L20.5632 3.31586C20.0324 2.9906 19.4349 2.84895 18.7221 2.78118C18.0188 2.71431 17.1392 2.71498 16.0264 2.71498V3.99522ZM22.5103 9.19888C22.5103 8.08603 22.5109 7.20644 22.4441 6.50316C22.3763 5.79035 22.2347 5.19285 21.9094 4.66206L20.8178 5.33098C20.9991 5.62681 21.1107 6.00524 21.1696 6.62433C21.2294 7.25296 21.23 8.06124 21.23 9.19888H22.5103ZM19.8943 4.40744C20.2707 4.63811 20.5871 4.95458 20.8178 5.33098L21.9094 4.66206C21.5732 4.11339 21.1119 3.65209 20.5632 3.31586L19.8943 4.40744ZM13.9639 2.71498C12.8511 2.71498 11.9715 2.71431 11.2682 2.78118C10.5554 2.84895 9.95789 2.9906 9.4271 3.31586L10.096 4.40744C10.3918 4.22616 10.7703 4.11453 11.3894 4.05567C12.018 3.9959 12.8263 3.99522 13.9639 3.99522V2.71498ZM9.4271 3.31586C8.87843 3.65209 8.41713 4.11339 8.08091 4.66206L9.17249 5.33098C9.40315 4.95458 9.71962 4.63811 10.096 4.40744L9.4271 3.31586ZM8.78989 7.05502C8.83579 6.17267 8.95072 5.69288 9.17249 5.33098L8.08091 4.66206C7.68659 5.30552 7.5601 6.05197 7.51138 6.98852L8.78989 7.05502ZM18.2248 15.6688C18.9264 15.6455 19.4855 15.5826 19.9931 15.3724L19.5032 14.1896C19.2181 14.3077 18.8515 14.3671 18.1823 14.3893L18.2248 15.6688Z" fill="white"/>
<path opacity="0.5" d="M7.67041 13.4385H7.67866M10.8702 13.4385H10.8785M14.0703 13.4385H14.0786" stroke="white" stroke-width="1.28024" stroke-linecap="round" stroke-linejoin="round"/>
<path d="M8.64884 29.5417H7.76816C7.71608 29.2884 7.62493 29.0659 7.49472 28.8741C7.36688 28.6824 7.21063 28.5214 7.02597 28.3912C6.84368 28.2586 6.64127 28.1592 6.41873 28.0929C6.19619 28.0266 5.96418 27.9935 5.72271 27.9935C5.28237 27.9935 4.88346 28.1047 4.52597 28.3273C4.17086 28.5498 3.88795 28.8777 3.67725 29.3109C3.46892 29.7442 3.36475 30.2756 3.36475 30.9054C3.36475 31.5351 3.46892 32.0666 3.67725 32.4998C3.88795 32.9331 4.17086 33.261 4.52597 33.4835C4.88346 33.706 5.28237 33.8173 5.72271 33.8173C5.96418 33.8173 6.19619 33.7842 6.41873 33.7179C6.64127 33.6516 6.84368 33.5533 7.02597 33.4231C7.21063 33.2906 7.36688 33.1284 7.49472 32.9366C7.62493 32.7425 7.71608 32.52 7.76816 32.269H8.64884C8.58256 32.6407 8.46182 32.9733 8.28663 33.2669C8.11144 33.5605 7.89364 33.8102 7.63322 34.0162C7.3728 34.2198 7.08043 34.3748 6.75609 34.4814C6.43412 34.5879 6.08966 34.6412 5.72271 34.6412C5.10244 34.6412 4.55083 34.4897 4.06788 34.1866C3.58492 33.8836 3.20495 33.4527 2.92796 32.894C2.65097 32.3353 2.51248 31.6724 2.51248 30.9054C2.51248 30.1383 2.65097 29.4755 2.92796 28.9167C3.20495 28.358 3.58492 27.9272 4.06788 27.6241C4.55083 27.3211 5.10244 27.1696 5.72271 27.1696C6.08966 27.1696 6.43412 27.2229 6.75609 27.3294C7.08043 27.4359 7.3728 27.5922 7.63322 27.7981C7.89364 28.0017 8.11144 28.2503 8.28663 28.5439C8.46182 28.8351 8.58256 29.1677 8.64884 29.5417ZM10.7964 31.2605V34.5417H9.95832V27.269H10.7964V29.9395H10.8674C10.9953 29.6578 11.187 29.434 11.4427 29.2683C11.7007 29.1002 12.044 29.0162 12.4725 29.0162C12.8442 29.0162 13.1697 29.0908 13.4491 29.2399C13.7284 29.3867 13.9451 29.6128 14.099 29.9182C14.2552 30.2212 14.3333 30.6071 14.3333 31.0758V34.5417H13.4953V31.1327C13.4953 30.6994 13.3828 30.3644 13.1579 30.1277C12.9354 29.8886 12.6264 29.769 12.2311 29.769C11.9564 29.769 11.7102 29.827 11.4924 29.943C11.277 30.059 11.1065 30.2283 10.9811 30.4508C10.8579 30.6734 10.7964 30.9433 10.7964 31.2605ZM17.4716 34.6696C17.126 34.6696 16.8123 34.6045 16.5306 34.4743C16.2489 34.3417 16.0251 34.1511 15.8594 33.9025C15.6937 33.6516 15.6108 33.3486 15.6108 32.9935C15.6108 32.681 15.6724 32.4276 15.7955 32.2335C15.9186 32.037 16.0831 31.8831 16.2891 31.7719C16.4951 31.6606 16.7224 31.5777 16.9709 31.5233C17.2219 31.4665 17.474 31.4215 17.7273 31.3883C18.0588 31.3457 18.3275 31.3138 18.5334 31.2925C18.7418 31.2688 18.8933 31.2297 18.988 31.1753C19.085 31.1208 19.1336 31.0261 19.1336 30.8912V30.8628C19.1336 30.5124 19.0377 30.2401 18.8459 30.046C18.6565 29.8519 18.3689 29.7548 17.983 29.7548C17.5829 29.7548 17.2692 29.8424 17.042 30.0176C16.8147 30.1928 16.6549 30.3798 16.5626 30.5787L15.7671 30.2946C15.9091 29.9631 16.0985 29.7051 16.3353 29.5204C16.5744 29.3334 16.8348 29.2032 17.1165 29.1298C17.4006 29.0541 17.68 29.0162 17.9546 29.0162C18.1298 29.0162 18.331 29.0375 18.5583 29.0801C18.7879 29.1203 19.0093 29.2044 19.2224 29.3322C19.4378 29.4601 19.6165 29.653 19.7586 29.9111C19.9006 30.1691 19.9716 30.5148 19.9716 30.948V34.5417H19.1336V33.8031H19.091C19.0341 33.9215 18.9394 34.0481 18.8069 34.1831C18.6743 34.318 18.4979 34.4328 18.2777 34.5275C18.0576 34.6222 17.7889 34.6696 17.4716 34.6696ZM17.5995 33.9167C17.9309 33.9167 18.2103 33.8516 18.4376 33.7214C18.6672 33.5912 18.84 33.4231 18.956 33.2172C19.0744 33.0112 19.1336 32.7946 19.1336 32.5673V31.8003C19.0981 31.8429 19.0199 31.8819 18.8992 31.9175C18.7808 31.9506 18.6435 31.9802 18.4873 32.0062C18.3334 32.0299 18.1831 32.0512 18.0363 32.0702C17.8919 32.0867 17.7747 32.1009 17.6847 32.1128C17.4669 32.1412 17.2633 32.1873 17.0739 32.2513C16.8869 32.3128 16.7354 32.4063 16.6194 32.5318C16.5057 32.6549 16.4489 32.823 16.4489 33.0361C16.4489 33.3273 16.5566 33.5474 16.7721 33.6966C16.9899 33.8434 17.2657 33.9167 17.5995 33.9167ZM23.8735 29.0872V29.7974H21.0467V29.0872H23.8735ZM21.8706 27.7804H22.7087V32.9792C22.7087 33.216 22.743 33.3935 22.8117 33.5119C22.8827 33.6279 22.9726 33.706 23.0816 33.7463C23.1928 33.7842 23.31 33.8031 23.4331 33.8031C23.5254 33.8031 23.6012 33.7984 23.6604 33.7889C23.7196 33.7771 23.7669 33.7676 23.8024 33.7605L23.9729 34.5133C23.9161 34.5346 23.8368 34.556 23.735 34.5773C23.6332 34.6009 23.5041 34.6128 23.3479 34.6128C23.1111 34.6128 22.8791 34.5619 22.6519 34.4601C22.427 34.3583 22.2399 34.2032 22.0908 33.9949C21.944 33.7865 21.8706 33.5238 21.8706 33.2065V27.7804Z" fill="white"/>
</svg>
