<svg width="25" height="36" viewBox="0 0 25 36" fill="none" xmlns="http://www.w3.org/2000/svg">
<g clip-path="url(#clip0_720_5109)">
<path fill-rule="evenodd" clip-rule="evenodd" d="M11.4667 20.7229L11.6959 20.3356C12.0633 19.715 12.247 19.4046 12.5396 19.2316C12.8322 19.0585 13.2138 19.0463 13.9771 19.0219C14.6929 18.999 15.1739 18.9365 15.5852 18.7662C16.4512 18.4075 17.1392 17.7195 17.4979 16.8535C17.7669 16.204 17.7669 15.3807 17.7669 13.734V13.0271C17.7669 10.7134 17.7669 9.55648 17.2461 8.70663C16.9547 8.23109 16.5549 7.83127 16.0794 7.53986C15.2295 7.01906 14.0726 7.01906 11.7589 7.01906H9.6384C7.32465 7.01906 6.16778 7.01906 5.31793 7.53986C4.84239 7.83127 4.44257 8.23109 4.15116 8.70663C3.63037 9.55648 3.63037 10.7134 3.63037 13.0271V13.734C3.63037 15.3807 3.63037 16.204 3.89939 16.8535C4.25808 17.7195 4.94609 18.4075 5.81205 18.7662C6.22336 18.9365 6.70439 18.999 7.42012 19.0219C8.18344 19.0463 8.5651 19.0585 8.85769 19.2316C9.15028 19.4046 9.33397 19.715 9.70132 20.3356L9.93054 20.7229C10.2721 21.2999 11.1252 21.2999 11.4667 20.7229ZM13.791 14.0873C14.279 14.0873 14.6745 13.6918 14.6745 13.2038C14.6745 12.7158 14.279 12.3203 13.791 12.3203C13.3031 12.3203 12.9075 12.7158 12.9075 13.2038C12.9075 13.6918 13.3031 14.0873 13.791 14.0873ZM11.5822 13.2038C11.5822 13.6918 11.1866 14.0873 10.6986 14.0873C10.2107 14.0873 9.81511 13.6918 9.81511 13.2038C9.81511 12.7158 10.2107 12.3203 10.6986 12.3203C11.1866 12.3203 11.5822 12.7158 11.5822 13.2038ZM7.60628 14.0873C8.09424 14.0873 8.48981 13.6918 8.48981 13.2038C8.48981 12.7158 8.09424 12.3203 7.60628 12.3203C7.11831 12.3203 6.72274 12.7158 6.72274 13.2038C6.72274 13.6918 7.11831 14.0873 7.60628 14.0873Z" fill="white"/>
<path d="M15.7025 2.82245C16.7583 2.82244 17.5978 2.82244 18.2711 2.88645C18.9615 2.9521 19.5452 3.08969 20.0652 3.40834C20.6002 3.73618 21.05 4.18598 21.3778 4.72096C21.6965 5.24094 21.8341 5.82466 21.8997 6.51505C21.9637 7.18834 21.9637 8.02793 21.9637 9.08364V9.80469C21.9637 10.5561 21.9637 11.1537 21.9306 11.6383C21.8968 12.1341 21.8262 12.5598 21.6611 12.9585C21.2575 13.9327 20.4835 14.7067 19.5093 15.1102C19.4849 15.1203 19.4605 15.13 19.4359 15.1395C19.3182 15.1844 19.2175 15.2229 19.1291 15.2516C19.1419 14.8219 19.1419 14.3324 19.1419 13.78V12.9621C19.1419 11.8606 19.142 10.9379 19.0706 10.1878C18.996 9.40244 18.8335 8.66547 18.4185 7.98819C18.0137 7.32764 17.4584 6.77227 16.7978 6.36748C16.1205 5.95244 15.3836 5.79001 14.5982 5.71534C13.8481 5.64401 12.9254 5.64404 11.8239 5.64406H9.57336C8.82528 5.64404 8.15967 5.64403 7.57457 5.66636C7.60183 5.5719 7.63917 5.46363 7.68301 5.33653C7.75757 5.12037 7.8518 4.91594 7.97128 4.72096C8.29912 4.18598 8.74891 3.73618 9.28389 3.40834C9.80388 3.08969 10.3876 2.9521 11.078 2.88645C11.7513 2.82244 12.5908 2.82244 13.6466 2.82245H15.7025Z" fill="white"/>
</g>
<path d="M8.18686 29.1702H6.85873C6.82085 28.9524 6.75101 28.7595 6.64921 28.5914C6.54742 28.421 6.42076 28.2765 6.26924 28.1582C6.11773 28.0398 5.94491 27.951 5.75078 27.8918C5.55902 27.8303 5.35187 27.7995 5.12933 27.7995C4.73397 27.7995 4.38359 27.8989 4.07819 28.0978C3.77279 28.2943 3.53368 28.5831 3.36086 28.9643C3.18804 29.3431 3.10163 29.8059 3.10163 30.3528C3.10163 30.9091 3.18804 31.3779 3.36086 31.759C3.53605 32.1378 3.77516 32.4243 4.07819 32.6184C4.38359 32.8102 4.73278 32.906 5.12578 32.906C5.34358 32.906 5.54718 32.8776 5.73657 32.8208C5.92833 32.7616 6.09997 32.6752 6.25149 32.5616C6.40537 32.4479 6.53439 32.3083 6.63856 32.1425C6.7451 31.9768 6.81849 31.7874 6.85873 31.5744L8.18686 31.5815C8.13714 31.9271 8.02942 32.2514 7.8637 32.5545C7.70035 32.8575 7.4861 33.125 7.22095 33.357C6.9558 33.5867 6.64566 33.7666 6.29055 33.8968C5.93544 34.0246 5.54126 34.0886 5.10802 34.0886C4.46882 34.0886 3.89827 33.9406 3.39637 33.6447C2.89448 33.3487 2.49912 32.9214 2.21029 32.3627C1.92147 31.804 1.77706 31.134 1.77706 30.3528C1.77706 29.5692 1.92265 28.8992 2.21384 28.3428C2.50504 27.7841 2.90158 27.3568 3.40348 27.0609C3.90537 26.7649 4.47355 26.617 5.10802 26.617C5.51285 26.617 5.88927 26.6738 6.23728 26.7874C6.58529 26.9011 6.89543 27.068 7.16768 27.2881C7.43993 27.5059 7.66366 27.7735 7.83885 28.0907C8.0164 28.4056 8.13241 28.7654 8.18686 29.1702ZM10.622 30.7931V33.9891H9.33654V26.7164H10.5936V29.4614H10.6576C10.7854 29.1537 10.9831 28.911 11.2506 28.7335C11.5205 28.5535 11.8638 28.4636 12.2804 28.4636C12.6592 28.4636 12.9895 28.5429 13.2712 28.7015C13.5529 28.8601 13.7707 29.0921 13.9246 29.3975C14.0809 29.7029 14.159 30.0758 14.159 30.5161V33.9891H12.8735V30.715C12.8735 30.348 12.7788 30.0628 12.5894 29.8592C12.4024 29.6532 12.1396 29.5502 11.801 29.5502C11.5738 29.5502 11.3702 29.5999 11.1902 29.6994C11.0127 29.7964 10.873 29.9373 10.7712 30.1219C10.6718 30.3066 10.622 30.5303 10.622 30.7931ZM17.039 34.0992C16.6933 34.0992 16.382 34.0377 16.105 33.9146C15.8304 33.7891 15.6126 33.6044 15.4516 33.3606C15.293 33.1167 15.2137 32.8161 15.2137 32.4586C15.2137 32.1508 15.2705 31.8963 15.3841 31.6951C15.4978 31.4939 15.6528 31.3329 15.8493 31.2121C16.0458 31.0914 16.2672 31.0003 16.5134 30.9387C16.762 30.8748 17.0188 30.8286 17.284 30.8002C17.6036 30.7671 17.8628 30.7375 18.0617 30.7114C18.2605 30.683 18.405 30.6404 18.4949 30.5836C18.5872 30.5244 18.6334 30.4333 18.6334 30.3102V30.2889C18.6334 30.0213 18.5541 29.8142 18.3955 29.6674C18.2369 29.5206 18.0084 29.4472 17.7101 29.4472C17.3952 29.4472 17.1455 29.5159 16.9608 29.6532C16.7785 29.7905 16.6554 29.9527 16.5915 30.1397L15.3912 29.9692C15.4859 29.6378 15.6422 29.3608 15.86 29.1383C16.0778 28.9134 16.3441 28.7453 16.659 28.634C16.9738 28.5204 17.3219 28.4636 17.703 28.4636C17.9658 28.4636 18.2274 28.4943 18.4878 28.5559C18.7482 28.6174 18.9862 28.7192 19.2016 28.8613C19.417 29.001 19.5899 29.1916 19.7201 29.433C19.8526 29.6745 19.9189 29.9764 19.9189 30.3386V33.9891H18.6831V33.2398H18.6405C18.5624 33.3914 18.4523 33.5334 18.3103 33.666C18.1706 33.7962 17.9942 33.9015 17.7811 33.982C17.5704 34.0602 17.323 34.0992 17.039 34.0992ZM17.3728 33.1546C17.6308 33.1546 17.8545 33.1037 18.0439 33.0019C18.2333 32.8978 18.3789 32.7604 18.4807 32.59C18.5849 32.4195 18.637 32.2337 18.637 32.0325V31.3897C18.5967 31.4228 18.5281 31.4536 18.431 31.482C18.3363 31.5104 18.2298 31.5353 18.1114 31.5566C17.993 31.5779 17.8758 31.5969 17.7598 31.6134C17.6438 31.63 17.5432 31.6442 17.458 31.656C17.2662 31.6821 17.0946 31.7247 16.9431 31.7839C16.7916 31.8431 16.672 31.9259 16.5844 32.0325C16.4968 32.1366 16.453 32.2716 16.453 32.4373C16.453 32.674 16.5394 32.8528 16.7122 32.9735C16.8851 33.0942 17.1052 33.1546 17.3728 33.1546ZM23.9353 28.5346V29.5289H20.7996V28.5346H23.9353ZM21.5738 27.2278H22.8593V32.3485C22.8593 32.5213 22.8853 32.6539 22.9374 32.7462C22.9918 32.8362 23.0629 32.8978 23.1505 32.9309C23.2381 32.964 23.3351 32.9806 23.4417 32.9806C23.5221 32.9806 23.5955 32.9747 23.6618 32.9629C23.7305 32.951 23.7826 32.9404 23.8181 32.9309L24.0347 33.9359C23.966 33.9595 23.8678 33.9856 23.7399 34.014C23.6145 34.0424 23.4606 34.059 23.2783 34.0637C22.9563 34.0732 22.6663 34.0246 22.4083 33.9181C22.1502 33.8092 21.9454 33.6411 21.7939 33.4139C21.6448 33.1866 21.5714 32.9025 21.5738 32.5616V27.2278Z" fill="white"/>
<defs>
<clipPath id="clip0_720_5109">
<rect width="23.9709" height="23.9709" fill="white" transform="translate(0.420654 0.0108643)"/>
</clipPath>
</defs>
</svg>
