<svg width="37" height="36" viewBox="0 0 37 36" fill="none" xmlns="http://www.w3.org/2000/svg">
<path d="M27.9124 21.1667H9.5791" stroke="white" stroke-width="1.28" stroke-linecap="round"/>
<path opacity="0.5" d="M26.9959 21.1667V14.2917C26.9959 13.5323 26.3802 12.9167 25.6208 12.9167H22.8708C22.1115 12.9167 21.4958 13.5323 21.4958 14.2917V21.1667" stroke="white" stroke-width="1.28"/>
<path d="M21.4959 21.1667V5.58337C21.4959 4.28701 21.4959 3.63883 21.0931 3.2361C20.6904 2.83337 20.0422 2.83337 18.7458 2.83337C17.4495 2.83337 16.8013 2.83337 16.3986 3.2361C15.9958 3.63883 15.9958 4.28701 15.9958 5.58337V21.1667" stroke="white" stroke-width="1.28"/>
<path opacity="0.5" d="M15.9958 21.1666V9.70831C15.9958 8.94892 15.3802 8.33331 14.6208 8.33331H11.8708C11.1115 8.33331 10.4958 8.94892 10.4958 9.70831V21.1666" stroke="white" stroke-width="1.28"/>
<path d="M3.26349 26.7273H4.31463L6.78622 32.7642H6.87145L9.34304 26.7273H10.3942V34H9.57031V28.4744H9.49929L7.22656 34H6.43111L4.15838 28.4744H4.08736V34H3.26349V26.7273ZM13.6515 34.1278C13.3058 34.1278 12.9921 34.0627 12.7104 33.9325C12.4287 33.8 12.205 33.6094 12.0392 33.3608C11.8735 33.1098 11.7907 32.8068 11.7907 32.4517C11.7907 32.1392 11.8522 31.8859 11.9753 31.6918C12.0984 31.4953 12.263 31.3414 12.4689 31.2301C12.6749 31.1188 12.9022 31.036 13.1507 30.9815C13.4017 30.9247 13.6538 30.8797 13.9071 30.8466C14.2386 30.804 14.5073 30.772 14.7132 30.7507C14.9216 30.727 15.0731 30.688 15.1678 30.6335C15.2649 30.5791 15.3134 30.4844 15.3134 30.3494V30.321C15.3134 29.9706 15.2175 29.6984 15.0257 29.5043C14.8364 29.3101 14.5487 29.2131 14.1628 29.2131C13.7627 29.2131 13.449 29.3007 13.2218 29.4759C12.9945 29.651 12.8347 29.8381 12.7424 30.0369L11.9469 29.7528C12.089 29.4214 12.2783 29.1634 12.5151 28.9787C12.7542 28.7917 13.0146 28.6615 13.2963 28.5881C13.5804 28.5123 13.8598 28.4744 14.1344 28.4744C14.3096 28.4744 14.5108 28.4957 14.7381 28.5384C14.9677 28.5786 15.1891 28.6626 15.4022 28.7905C15.6176 28.9183 15.7963 29.1113 15.9384 29.3693C16.0804 29.6274 16.1515 29.973 16.1515 30.4062V34H15.3134V33.2614H15.2708C15.214 33.3797 15.1193 33.5064 14.9867 33.6413C14.8541 33.7763 14.6777 33.8911 14.4576 33.9858C14.2374 34.0805 13.9687 34.1278 13.6515 34.1278ZM13.7793 33.375C14.1107 33.375 14.3901 33.3099 14.6174 33.1797C14.847 33.0495 15.0198 32.8814 15.1358 32.6754C15.2542 32.4695 15.3134 32.2528 15.3134 32.0256V31.2585C15.2779 31.3011 15.1998 31.3402 15.079 31.3757C14.9606 31.4089 14.8233 31.4384 14.6671 31.4645C14.5132 31.4882 14.3629 31.5095 14.2161 31.5284C14.0717 31.545 13.9545 31.5592 13.8645 31.571C13.6467 31.5994 13.4431 31.6456 13.2537 31.7095C13.0667 31.7711 12.9152 31.8646 12.7992 31.9901C12.6855 32.1132 12.6287 32.2812 12.6287 32.4943C12.6287 32.7855 12.7364 33.0057 12.9519 33.1548C13.1697 33.3016 13.4455 33.375 13.7793 33.375ZM17.6811 34V28.5455H18.4908V29.3693H18.5476C18.647 29.0994 18.8269 28.8804 19.0874 28.7124C19.3478 28.5443 19.6413 28.4602 19.968 28.4602C20.0296 28.4602 20.1065 28.4614 20.1989 28.4638C20.2912 28.4661 20.361 28.4697 20.4084 28.4744V29.3267C20.38 29.3196 20.3149 29.3089 20.2131 29.2947C20.1136 29.2782 20.0083 29.2699 19.897 29.2699C19.6319 29.2699 19.3951 29.3255 19.1868 29.4368C18.9808 29.5457 18.8175 29.6972 18.6967 29.8913C18.5784 30.0831 18.5192 30.3021 18.5192 30.5483V34H17.6811ZM22.1831 32.0114L22.1689 30.9744H22.3393L24.7257 28.5455H25.7626L23.22 31.1165H23.149L22.1831 32.0114ZM21.4018 34V26.7273H22.2399V34H21.4018ZM24.8677 34L22.737 31.3011L23.3336 30.7188L25.9331 34H24.8677ZM28.9036 34.1136C28.378 34.1136 27.9247 33.9976 27.5435 33.7656C27.1647 33.5312 26.8723 33.2045 26.6664 32.7855C26.4628 32.3641 26.361 31.8741 26.361 31.3153C26.361 30.7566 26.4628 30.2642 26.6664 29.8381C26.8723 29.4096 27.1588 29.0758 27.5257 28.8366C27.8951 28.5952 28.3259 28.4744 28.8184 28.4744C29.1025 28.4744 29.383 28.5218 29.66 28.6165C29.937 28.7112 30.1891 28.8651 30.4164 29.0781C30.6436 29.2888 30.8248 29.5682 30.9597 29.9162C31.0946 30.2642 31.1621 30.6927 31.1621 31.2017V31.5568H26.9576V30.8324H30.3098C30.3098 30.5246 30.2483 30.25 30.1252 30.0085C30.0044 29.767 29.8316 29.5765 29.6067 29.4368C29.3842 29.2971 29.1214 29.2273 28.8184 29.2273C28.4846 29.2273 28.1957 29.3101 27.9519 29.4759C27.7104 29.6392 27.5246 29.8523 27.3944 30.1151C27.2641 30.3778 27.199 30.6596 27.199 30.9602V31.4432C27.199 31.8551 27.2701 32.2043 27.4121 32.4908C27.5565 32.7749 27.7566 32.9915 28.0123 33.1406C28.2679 33.2874 28.565 33.3608 28.9036 33.3608C29.1238 33.3608 29.3226 33.33 29.5002 33.2685C29.6801 33.2045 29.8352 33.1098 29.9654 32.9844C30.0956 32.8565 30.1962 32.6979 30.2672 32.5085L31.0769 32.7358C30.9917 33.0104 30.8484 33.2519 30.6472 33.4602C30.446 33.6662 30.1974 33.8272 29.9015 33.9432C29.6055 34.0568 29.2729 34.1136 28.9036 34.1136ZM34.8091 28.5455V29.2557H31.9824V28.5455H34.8091ZM32.8063 27.2386H33.6444V32.4375C33.6444 32.6742 33.6787 32.8518 33.7473 32.9702C33.8184 33.0862 33.9083 33.1643 34.0172 33.2045C34.1285 33.2424 34.2457 33.2614 34.3688 33.2614C34.4611 33.2614 34.5369 33.2566 34.5961 33.2472C34.6552 33.2353 34.7026 33.2259 34.7381 33.2188L34.9086 33.9716C34.8517 33.9929 34.7724 34.0142 34.6706 34.0355C34.5688 34.0592 34.4398 34.071 34.2836 34.071C34.0468 34.071 33.8148 34.0201 33.5875 33.9183C33.3626 33.8165 33.1756 33.6615 33.0265 33.4531C32.8797 33.2448 32.8063 32.982 32.8063 32.6648V27.2386Z" fill="white"/>
</svg>
