<svg width="36" height="37" viewBox="0 0 36 37" fill="none" xmlns="http://www.w3.org/2000/svg">
<g clip-path="url(#clip0_720_5025)">
<path d="M26.1184 13.75C26.1184 13.3358 25.7826 13 25.3684 13H22.3684C21.9542 13 21.6184 13.3358 21.6184 13.75V20.5H20.1184V4.25C20.1184 3.52169 20.1168 3.05091 20.0702 2.70403C20.0264 2.37872 19.9558 2.27676 19.8987 2.21967C19.8416 2.16258 19.7397 2.09197 19.4144 2.04823C19.0675 2.00159 18.5967 2 17.8684 2C17.1401 2 16.6693 2.00159 16.3224 2.04823C15.9971 2.09197 15.8952 2.16258 15.8381 2.21967C15.781 2.27676 15.7104 2.37872 15.6666 2.70403C15.62 3.05091 15.6184 3.52169 15.6184 4.25V20.5H14.1184V8.75C14.1184 8.33579 13.7826 8 13.3684 8H10.3684C9.95419 8 9.61841 8.33579 9.61841 8.75V20.5H8.11841H7.86841C7.45419 20.5 7.11841 20.8358 7.11841 21.25C7.11841 21.6642 7.45419 22 7.86841 22H27.8684C28.2826 22 28.6184 21.6642 28.6184 21.25C28.6184 20.8358 28.2826 20.5 27.8684 20.5H27.6184H26.1184V13.75Z" fill="white"/>
</g>
<path d="M1.73491 27.7273H3.34712L5.50621 32.9972H5.59144L7.75053 27.7273H9.36275V35H8.09854V30.0036H8.03107L6.02113 34.9787H5.07653L3.06658 29.9929H2.99911V35H1.73491V27.7273ZM12.3102 35.1101C11.9645 35.1101 11.6532 35.0485 11.3762 34.9254C11.1016 34.8 10.8838 34.6153 10.7228 34.3714C10.5642 34.1276 10.4849 33.8269 10.4849 33.4695C10.4849 33.1617 10.5417 32.9072 10.6554 32.706C10.769 32.5047 10.9241 32.3438 11.1206 32.223C11.3171 32.1023 11.5384 32.0111 11.7846 31.9496C12.0332 31.8857 12.2901 31.8395 12.5552 31.8111C12.8748 31.7779 13.1341 31.7483 13.3329 31.7223C13.5318 31.6939 13.6762 31.6513 13.7662 31.5945C13.8585 31.5353 13.9047 31.4441 13.9047 31.321V31.2997C13.9047 31.0322 13.8253 30.825 13.6667 30.6783C13.5081 30.5315 13.2797 30.4581 12.9814 30.4581C12.6665 30.4581 12.4167 30.5268 12.2321 30.6641C12.0498 30.8014 11.9267 30.9635 11.8627 31.1506L10.6625 30.9801C10.7572 30.6487 10.9134 30.3717 11.1312 30.1491C11.349 29.9242 11.6154 29.7562 11.9302 29.6449C12.2451 29.5312 12.5931 29.4744 12.9743 29.4744C13.237 29.4744 13.4986 29.5052 13.7591 29.5668C14.0195 29.6283 14.2574 29.7301 14.4728 29.8722C14.6883 30.0118 14.8611 30.2024 14.9913 30.4439C15.1239 30.6854 15.1902 30.9872 15.1902 31.3494V35H13.9544V34.2507H13.9118C13.8336 34.4022 13.7235 34.5443 13.5815 34.6768C13.4418 34.8071 13.2654 34.9124 13.0524 34.9929C12.8417 35.071 12.5943 35.1101 12.3102 35.1101ZM12.644 34.1655C12.902 34.1655 13.1258 34.1146 13.3152 34.0128C13.5046 33.9086 13.6502 33.7713 13.752 33.6009C13.8561 33.4304 13.9082 33.2446 13.9082 33.0433V32.4006C13.868 32.4337 13.7993 32.4645 13.7022 32.4929C13.6075 32.5213 13.501 32.5462 13.3826 32.5675C13.2643 32.5888 13.1471 32.6077 13.0311 32.6243C12.9151 32.6409 12.8145 32.6551 12.7292 32.6669C12.5375 32.6929 12.3658 32.7356 12.2143 32.7947C12.0628 32.8539 11.9432 32.9368 11.8556 33.0433C11.7681 33.1475 11.7243 33.2824 11.7243 33.4482C11.7243 33.6849 11.8107 33.8636 11.9835 33.9844C12.1563 34.1051 12.3765 34.1655 12.644 34.1655ZM16.4828 35V29.5455H17.7292V30.4545H17.786C17.8855 30.1397 18.0559 29.897 18.2974 29.7266C18.5413 29.5537 18.8194 29.4673 19.1319 29.4673C19.2029 29.4673 19.2823 29.4709 19.3699 29.478C19.4598 29.4827 19.5344 29.491 19.5936 29.5028V30.6854C19.5391 30.6664 19.4527 30.6499 19.3343 30.6357C19.2183 30.6191 19.1059 30.6108 18.997 30.6108C18.7626 30.6108 18.5519 30.6617 18.3649 30.7635C18.1802 30.8629 18.0346 31.0014 17.9281 31.179C17.8216 31.3565 17.7683 31.5613 17.7683 31.7933V35H16.4828ZM21.6195 33.2884L21.6159 31.7365H21.8219L23.7821 29.5455H25.2843L22.873 32.2301H22.6067L21.6195 33.2884ZM20.4476 35V27.7273H21.7331V35H20.4476ZM23.8709 35L22.0953 32.5178L22.9618 31.6122L25.4086 35H23.8709ZM28.3311 35.1065C27.7843 35.1065 27.312 34.9929 26.9142 34.7656C26.5189 34.536 26.2147 34.2116 26.0016 33.7926C25.7885 33.3712 25.682 32.8752 25.682 32.3047C25.682 31.7436 25.7885 31.2512 26.0016 30.8274C26.217 30.4013 26.5177 30.0698 26.9036 29.8331C27.2895 29.594 27.7428 29.4744 28.2637 29.4744C28.5998 29.4744 28.9171 29.5289 29.2154 29.6378C29.516 29.7443 29.7812 29.91 30.0108 30.1349C30.2428 30.3598 30.4251 30.6463 30.5577 30.9943C30.6903 31.34 30.7566 31.7519 30.7566 32.2301V32.6243H26.2857V31.7578H29.5243C29.522 31.5116 29.4687 31.2926 29.3645 31.1009C29.2604 30.9067 29.1148 30.754 28.9277 30.6428C28.7431 30.5315 28.5276 30.4759 28.2814 30.4759C28.0186 30.4759 27.7878 30.5398 27.589 30.6676C27.3901 30.7931 27.235 30.9588 27.1238 31.1648C27.0149 31.3684 26.9592 31.5921 26.9569 31.8359V32.5923C26.9569 32.9096 27.0149 33.1818 27.1309 33.4091C27.2469 33.634 27.409 33.8068 27.6174 33.9276C27.8257 34.0459 28.0695 34.1051 28.3489 34.1051C28.5359 34.1051 28.7052 34.0791 28.8567 34.027C29.0082 33.9725 29.1396 33.8932 29.2509 33.7891C29.3622 33.6849 29.4462 33.5559 29.503 33.402L30.7033 33.5369C30.6275 33.8542 30.4831 34.1312 30.2701 34.3679C30.0594 34.6023 29.7895 34.7846 29.4604 34.9148C29.1313 35.0426 28.7549 35.1065 28.3311 35.1065ZM34.5678 29.5455V30.5398H31.4322V29.5455H34.5678ZM32.2063 28.2386H33.4918V33.3594C33.4918 33.5322 33.5179 33.6648 33.57 33.7571C33.6244 33.8471 33.6954 33.9086 33.783 33.9418C33.8706 33.9749 33.9677 33.9915 34.0742 33.9915C34.1547 33.9915 34.2281 33.9856 34.2944 33.9737C34.363 33.9619 34.4151 33.9512 34.4506 33.9418L34.6673 34.9467C34.5986 34.9704 34.5004 34.9964 34.3725 35.0249C34.247 35.0533 34.0932 35.0698 33.9109 35.0746C33.5889 35.084 33.2989 35.0355 33.0408 34.929C32.7828 34.8201 32.578 34.652 32.4265 34.4247C32.2773 34.1974 32.204 33.9134 32.2063 33.5724V28.2386Z" fill="white"/>
<defs>
<clipPath id="clip0_720_5025">
<rect width="23.9709" height="23.9709" fill="white" transform="translate(5.90308)"/>
</clipPath>
</defs>
</svg>
