<svg width="30" height="36" viewBox="0 0 30 36" fill="none" xmlns="http://www.w3.org/2000/svg">
<path fill-rule="evenodd" clip-rule="evenodd" d="M7.82419 3.90713C6.75024 4.98107 6.75024 6.70956 6.75024 10.1665V13.8332C6.75024 17.2902 6.75024 19.0186 7.82419 20.0926C8.89813 21.1665 10.6266 21.1665 14.0836 21.1665H15.9169C19.3739 21.1665 21.1024 21.1665 22.1763 20.0926C23.2502 19.0186 23.2502 17.2902 23.2502 13.8332V10.1665C23.2502 6.70956 23.2502 4.98107 22.1763 3.90713C21.1024 2.83319 19.3739 2.83319 15.9169 2.83319H14.0836C10.6266 2.83319 8.89813 2.83319 7.82419 3.90713ZM10.6461 8.33319C10.6461 7.9535 10.9539 7.64569 11.3336 7.64569H18.6669C19.0466 7.64569 19.3544 7.9535 19.3544 8.33319C19.3544 8.71289 19.0466 9.02069 18.6669 9.02069H11.3336C10.9539 9.02069 10.6461 8.71289 10.6461 8.33319ZM10.6461 11.9999C10.6461 11.6202 10.9539 11.3124 11.3336 11.3124H18.6669C19.0466 11.3124 19.3544 11.6202 19.3544 11.9999C19.3544 12.3796 19.0466 12.6874 18.6669 12.6874H11.3336C10.9539 12.6874 10.6461 12.3796 10.6461 11.9999ZM11.3336 14.979C10.9539 14.979 10.6461 15.2868 10.6461 15.6665C10.6461 16.0462 10.9539 16.354 11.3336 16.354H15.9169C16.2966 16.354 16.6044 16.0462 16.6044 15.6665C16.6044 15.2868 16.2966 14.979 15.9169 14.979H11.3336Z" fill="white"/>
<path d="M8.45268 26.7084V33.9811H7.28081L3.85396 29.0272H3.79359V33.9811H2.47612V26.7084H3.6551L7.07839 31.6657H7.14231V26.7084H8.45268ZM12.2462 34.0876C11.6993 34.0876 11.227 33.974 10.8293 33.7467C10.4339 33.5171 10.1297 33.1927 9.91664 32.7737C9.70357 32.3523 9.59703 31.8563 9.59703 31.2858C9.59703 30.7247 9.70357 30.2323 9.91664 29.8085C10.1321 29.3824 10.4327 29.0509 10.8186 28.8142C11.2045 28.5751 11.6579 28.4555 12.1787 28.4555C12.5149 28.4555 12.8321 28.51 13.1304 28.6189C13.4311 28.7254 13.6962 28.8911 13.9259 29.116C14.1579 29.3409 14.3402 29.6274 14.4727 29.9754C14.6053 30.321 14.6716 30.733 14.6716 31.2112V31.6054H10.2007V30.7389H13.4394C13.437 30.4927 13.3837 30.2737 13.2796 30.0819C13.1754 29.8878 13.0298 29.7351 12.8428 29.6238C12.6581 29.5126 12.4427 29.4569 12.1965 29.4569C11.9337 29.4569 11.7029 29.5209 11.504 29.6487C11.3051 29.7742 11.1501 29.9399 11.0388 30.1459C10.9299 30.3495 10.8743 30.5732 10.8719 30.817V31.5734C10.8719 31.8906 10.9299 32.1629 11.0459 32.3902C11.1619 32.6151 11.3241 32.7879 11.5324 32.9086C11.7407 33.027 11.9846 33.0862 12.2639 33.0862C12.451 33.0862 12.6202 33.0602 12.7718 33.0081C12.9233 32.9536 13.0547 32.8743 13.1659 32.7701C13.2772 32.666 13.3612 32.537 13.4181 32.3831L14.6183 32.518C14.5426 32.8352 14.3982 33.1122 14.1851 33.349C13.9744 33.5834 13.7045 33.7656 13.3754 33.8959C13.0464 34.0237 12.67 34.0876 12.2462 34.0876ZM16.8556 33.9811L15.3144 28.5265H16.6247L17.5835 32.3618H17.6333L18.6134 28.5265H19.9095L20.8896 32.3405H20.9429L21.8875 28.5265H23.2014L21.6567 33.9811H20.3179L19.2952 30.295H19.2206L18.1979 33.9811H16.8556ZM28.4101 29.9683L27.2382 30.0961C27.205 29.9778 27.147 29.8665 27.0642 29.7623C26.9837 29.6582 26.8748 29.5741 26.7375 29.5102C26.6002 29.4463 26.4321 29.4143 26.2332 29.4143C25.9657 29.4143 25.7408 29.4723 25.5585 29.5883C25.3786 29.7043 25.2898 29.8547 25.2922 30.0393C25.2898 30.1979 25.3478 30.327 25.4662 30.4264C25.5869 30.5258 25.7858 30.6075 26.0628 30.6714L26.9932 30.8703C27.5093 30.9816 27.8928 31.1579 28.1437 31.3994C28.397 31.6409 28.5249 31.9569 28.5273 32.3476C28.5249 32.6908 28.4243 32.9939 28.2254 33.2566C28.0289 33.5171 27.7555 33.7207 27.4051 33.8674C27.0547 34.0142 26.6523 34.0876 26.1977 34.0876C25.5301 34.0876 24.9927 33.9479 24.5855 33.6686C24.1783 33.3869 23.9356 32.995 23.8575 32.4932L25.1111 32.3724C25.1679 32.6186 25.2886 32.8045 25.4733 32.9299C25.6579 33.0554 25.8982 33.1182 26.1942 33.1182C26.4996 33.1182 26.7446 33.0554 26.9292 32.9299C27.1163 32.8045 27.2098 32.6494 27.2098 32.4647C27.2098 32.3085 27.1494 32.1795 27.0287 32.0777C26.9103 31.9759 26.7256 31.8977 26.4747 31.8433L25.5443 31.648C25.0211 31.5391 24.634 31.3556 24.3831 31.0976C24.1321 30.8371 24.0078 30.5081 24.0102 30.1103C24.0078 29.7742 24.099 29.483 24.2836 29.2368C24.4707 28.9882 24.7299 28.7964 25.0613 28.6615C25.3952 28.5242 25.7799 28.4555 26.2155 28.4555C26.8547 28.4555 27.3577 28.5916 27.7247 28.8639C28.094 29.1361 28.3225 29.5043 28.4101 29.9683Z" fill="white"/>
</svg>
