<svg width="27" height="37" viewBox="0 0 27 37" fill="none" xmlns="http://www.w3.org/2000/svg">
<g clip-path="url(#clip0_720_5029)">
<path fill-rule="evenodd" clip-rule="evenodd" d="M12.1505 3.14581H14.0873C15.7719 3.1458 17.1062 3.14579 18.1505 3.28619C19.2252 3.43068 20.0951 3.73512 20.7811 4.42112C21.4671 5.10712 21.7715 5.97699 21.916 7.05171C22.0564 8.09599 22.0564 9.43032 22.0564 11.1149V14.885C22.0564 16.5696 22.0564 17.904 21.916 18.9483C21.7715 20.023 21.4671 20.8928 20.7811 21.5788C20.0951 22.2648 19.2252 22.5693 18.1505 22.7138C17.1062 22.8542 15.7719 22.8542 14.0873 22.8541H12.1505C10.4659 22.8542 9.13157 22.8542 8.08729 22.7138C7.01257 22.5693 6.1427 22.2648 5.4567 21.5788C4.7707 20.8928 4.46626 20.023 4.32177 18.9483C4.18137 17.904 4.18138 16.5696 4.1814 14.885V11.1149C4.18138 9.43032 4.18137 8.09599 4.32177 7.05171C4.46626 5.97699 4.7707 5.10712 5.4567 4.42112C6.1427 3.73512 7.01257 3.43068 8.08729 3.28619C9.13157 3.14579 10.4659 3.1458 12.1505 3.14581ZM8.27051 4.64893C7.34826 4.77292 6.81692 5.00545 6.42897 5.39339C6.04103 5.78133 5.8085 6.31268 5.68451 7.23492C5.55786 8.17695 5.5564 9.41873 5.5564 11.1666V14.8333C5.5564 16.5812 5.55786 17.823 5.68451 18.765C5.8085 19.6873 6.04103 20.2186 6.42897 20.6066C6.81692 20.9945 7.34826 21.227 8.27051 21.351C9.21253 21.4777 10.4543 21.4791 12.2022 21.4791H14.0356C15.7835 21.4791 17.0253 21.4777 17.9673 21.351C18.8895 21.227 19.4209 20.9945 19.8088 20.6066C20.1968 20.2186 20.4293 19.6873 20.5533 18.765C20.6799 17.823 20.6814 16.5812 20.6814 14.8333V11.1666C20.6814 9.41873 20.6799 8.17695 20.5533 7.23492C20.4293 6.31268 20.1968 5.78133 19.8088 5.39339C19.4209 5.00545 18.8895 4.77292 17.9673 4.64893C17.0253 4.52227 15.7835 4.52081 14.0356 4.52081H12.2022C10.4543 4.52081 9.21253 4.52227 8.27051 4.64893ZM8.76473 9.33331C8.76473 8.95362 9.07253 8.64581 9.45223 8.64581H16.7856C17.1653 8.64581 17.4731 8.95362 17.4731 9.33331C17.4731 9.71301 17.1653 10.0208 16.7856 10.0208H9.45223C9.07253 10.0208 8.76473 9.71301 8.76473 9.33331ZM8.76473 13C8.76473 12.6203 9.07253 12.3125 9.45223 12.3125H16.7856C17.1653 12.3125 17.4731 12.6203 17.4731 13C17.4731 13.3797 17.1653 13.6875 16.7856 13.6875H9.45223C9.07253 13.6875 8.76473 13.3797 8.76473 13ZM8.76473 16.6666C8.76473 16.287 9.07253 15.9791 9.45223 15.9791H14.0356C14.4153 15.9791 14.7231 16.287 14.7231 16.6666C14.7231 17.0463 14.4153 17.3541 14.0356 17.3541H9.45223C9.07253 17.3541 8.76473 17.0463 8.76473 16.6666Z" fill="white"/>
</g>
<path d="M6.75967 27.2007V34.4734H5.90739L1.94433 28.7632H1.8733V34.4734H0.992621V27.2007H1.84489L5.82217 32.9251H5.89319V27.2007H6.75967ZM10.6952 34.587C10.1696 34.587 9.71628 34.471 9.33513 34.239C8.95634 34.0046 8.66396 33.6779 8.458 33.2589C8.2544 32.8375 8.1526 32.3474 8.1526 31.7887C8.1526 31.23 8.2544 30.7376 8.458 30.3115C8.66396 29.883 8.95042 29.5491 9.31737 29.31C9.68669 29.0686 10.1176 28.9478 10.61 28.9478C10.8941 28.9478 11.1746 28.9952 11.4516 29.0899C11.7286 29.1846 11.9807 29.3384 12.208 29.5515C12.4353 29.7622 12.6164 30.0416 12.7513 30.3896C12.8863 30.7376 12.9537 31.1661 12.9537 31.6751V32.0302H8.74919V31.3058H12.1015C12.1015 30.998 12.0399 30.7234 11.9168 30.4819C11.7961 30.2404 11.6232 30.0499 11.3983 29.9102C11.1758 29.7705 10.913 29.7007 10.61 29.7007C10.2762 29.7007 9.98735 29.7835 9.74351 29.9492C9.50203 30.1126 9.31619 30.3257 9.18598 30.5884C9.05577 30.8512 8.99067 31.133 8.99067 31.4336V31.9166C8.99067 32.3285 9.06169 32.6777 9.20374 32.9642C9.34815 33.2482 9.5482 33.4649 9.80388 33.614C10.0596 33.7608 10.3567 33.8342 10.6952 33.8342C10.9154 33.8342 11.1142 33.8034 11.2918 33.7419C11.4717 33.6779 11.6268 33.5832 11.757 33.4578C11.8872 33.3299 11.9878 33.1713 12.0589 32.9819L12.8685 33.2092C12.7833 33.4838 12.6401 33.7253 12.4388 33.9336C12.2376 34.1396 11.989 34.3006 11.6931 34.4166C11.3972 34.5302 11.0645 34.587 10.6952 34.587ZM15.4644 34.4734L13.8025 29.0188H14.6831L15.8621 33.195H15.9189L17.0837 29.0188H17.9786L19.1292 33.1808H19.186L20.365 29.0188H21.2456L19.5837 34.4734H18.7598L17.5667 30.283H17.4814L16.2883 34.4734H15.4644ZM26.2172 30.2404L25.4644 30.4535C25.417 30.328 25.3472 30.2061 25.2549 30.0877C25.1649 29.967 25.0418 29.8676 24.8856 29.7894C24.7293 29.7113 24.5293 29.6723 24.2854 29.6723C23.9516 29.6723 23.6734 29.7492 23.4509 29.9031C23.2307 30.0546 23.1206 30.2475 23.1206 30.4819C23.1206 30.6902 23.1964 30.8548 23.3479 30.9755C23.4994 31.0963 23.7362 31.1969 24.0581 31.2774L24.8678 31.4762C25.3555 31.5946 25.7189 31.7757 25.958 32.0196C26.1971 32.261 26.3167 32.5723 26.3167 32.9535C26.3167 33.266 26.2267 33.5454 26.0468 33.7916C25.8692 34.0378 25.6206 34.2319 25.301 34.374C24.9814 34.516 24.6097 34.587 24.186 34.587C23.6296 34.587 23.1692 34.4663 22.8046 34.2248C22.44 33.9833 22.2092 33.6306 22.1121 33.1666L22.9076 32.9677C22.9833 33.2613 23.1266 33.4814 23.3373 33.6282C23.5503 33.775 23.8285 33.8484 24.1718 33.8484C24.5624 33.8484 24.8725 33.7655 25.1022 33.5998C25.3342 33.4317 25.4502 33.2305 25.4502 32.9961C25.4502 32.8067 25.3839 32.6481 25.2513 32.5203C25.1187 32.3901 24.9151 32.293 24.6405 32.2291L23.7314 32.016C23.2319 31.8976 22.865 31.7142 22.6306 31.4656C22.3986 31.2146 22.2826 30.9009 22.2826 30.5245C22.2826 30.2168 22.369 29.9445 22.5418 29.7078C22.717 29.471 22.9549 29.2852 23.2556 29.1502C23.5586 29.0153 23.9019 28.9478 24.2854 28.9478C24.8252 28.9478 25.249 29.0662 25.5567 29.3029C25.8669 29.5397 26.087 29.8522 26.2172 30.2404Z" fill="white"/>
<defs>
<clipPath id="clip0_720_5029">
<rect width="23.9709" height="23.9709" fill="white" transform="translate(0.983154 0.575684)"/>
</clipPath>
</defs>
</svg>
