<svg width="42" height="37" viewBox="0 0 42 37" fill="none" xmlns="http://www.w3.org/2000/svg">
<path opacity="0.5" d="M28.1199 15.7564C27.044 19.1819 23.8437 21.6667 20.0631 21.6667C15.4001 21.6667 11.6199 17.8865 11.6199 13.2234C11.6199 9.44283 14.1046 6.24258 17.5302 5.16669" stroke="white" stroke-width="1.27789" stroke-linecap="round"/>
<path d="M29.8735 10.6183C28.9005 7.13233 26.1542 4.38606 22.6682 3.41297C21.1616 2.99241 19.8699 4.29965 19.8699 5.86388V12.0005C19.8699 12.7826 20.5039 13.4166 21.286 13.4166H27.4226C28.9869 13.4166 30.2941 12.1249 29.8735 10.6183Z" stroke="white" stroke-width="1.27789"/>
<path d="M2.13797 34.5491V27.2763H4.59535C5.1659 27.2763 5.63228 27.3793 5.9945 27.5853C6.35908 27.7889 6.62897 28.0647 6.80416 28.4127C6.97935 28.7607 7.06694 29.149 7.06694 29.5775C7.06694 30.006 6.97935 30.3954 6.80416 30.7458C6.63134 31.0962 6.36382 31.3755 6.0016 31.5839C5.63939 31.7898 5.17537 31.8928 4.60956 31.8928H2.84819V31.1116H4.58115C4.97177 31.1116 5.28546 31.0441 5.5222 30.9092C5.75894 30.7742 5.93058 30.5919 6.03711 30.3623C6.14602 30.1303 6.20047 29.8687 6.20047 29.5775C6.20047 29.2863 6.14602 29.0259 6.03711 28.7962C5.93058 28.5666 5.75776 28.3867 5.51865 28.2565C5.27954 28.1239 4.9623 28.0576 4.56694 28.0576H3.01865V34.5491H2.13797ZM10.5293 34.6627C10.0369 34.6627 9.60482 34.5455 9.23314 34.3111C8.86382 34.0768 8.57499 33.7489 8.36666 33.3275C8.16069 32.9061 8.05771 32.4137 8.05771 31.8502C8.05771 31.282 8.16069 30.7861 8.36666 30.3623C8.57499 29.9385 8.86382 29.6094 9.23314 29.3751C9.60482 29.1407 10.0369 29.0235 10.5293 29.0235C11.0217 29.0235 11.4526 29.1407 11.8219 29.3751C12.1936 29.6094 12.4824 29.9385 12.6884 30.3623C12.8967 30.7861 13.0009 31.282 13.0009 31.8502C13.0009 32.4137 12.8967 32.9061 12.6884 33.3275C12.4824 33.7489 12.1936 34.0768 11.8219 34.3111C11.4526 34.5455 11.0217 34.6627 10.5293 34.6627ZM10.5293 33.9099C10.9034 33.9099 11.2111 33.814 11.4526 33.6222C11.6941 33.4305 11.8728 33.1783 11.9888 32.8658C12.1048 32.5533 12.1628 32.2148 12.1628 31.8502C12.1628 31.4856 12.1048 31.1459 11.9888 30.831C11.8728 30.5162 11.6941 30.2617 11.4526 30.0675C11.2111 29.8734 10.9034 29.7763 10.5293 29.7763C10.1552 29.7763 9.84748 29.8734 9.60601 30.0675C9.36453 30.2617 9.18579 30.5162 9.06978 30.831C8.95378 31.1459 8.89578 31.4856 8.89578 31.8502C8.89578 32.2148 8.95378 32.5533 9.06978 32.8658C9.18579 33.1783 9.36453 33.4305 9.60601 33.6222C9.84748 33.814 10.1552 33.9099 10.5293 33.9099ZM14.2802 34.5491V29.0945H15.0898V29.9184H15.1467C15.2461 29.6485 15.426 29.4295 15.6864 29.2614C15.9469 29.0933 16.2404 29.0093 16.5671 29.0093C16.6287 29.0093 16.7056 29.0105 16.7979 29.0129C16.8903 29.0152 16.9601 29.0188 17.0075 29.0235V29.8758C16.9791 29.8687 16.9139 29.858 16.8121 29.8438C16.7127 29.8272 16.6074 29.819 16.4961 29.819C16.2309 29.819 15.9942 29.8746 15.7859 29.9859C15.5799 30.0948 15.4166 30.2463 15.2958 30.4404C15.1774 30.6322 15.1183 30.8512 15.1183 31.0974V34.5491H14.2802ZM20.7148 29.0945V29.8048H17.8881V29.0945H20.7148ZM18.712 27.7877H19.5501V32.9866C19.5501 33.2233 19.5844 33.4009 19.6531 33.5192C19.7241 33.6352 19.814 33.7134 19.9229 33.7536C20.0342 33.7915 20.1514 33.8104 20.2745 33.8104C20.3668 33.8104 20.4426 33.8057 20.5018 33.7962C20.561 33.7844 20.6083 33.7749 20.6438 33.7678L20.8143 34.5207C20.7575 34.542 20.6782 34.5633 20.5764 34.5846C20.4746 34.6083 20.3455 34.6201 20.1893 34.6201C19.9525 34.6201 19.7205 34.5692 19.4933 34.4674C19.2684 34.3656 19.0813 34.2105 18.9322 34.0022C18.7854 33.7939 18.712 33.5311 18.712 33.2138V27.7877ZM24.4045 29.0945V29.8048H21.4641V29.0945H24.4045ZM22.3448 34.5491V28.3417C22.3448 28.0292 22.4182 27.7688 22.565 27.5604C22.7118 27.3521 22.9023 27.1959 23.1367 27.0917C23.3711 26.9875 23.6185 26.9354 23.8789 26.9354C24.0849 26.9354 24.253 26.952 24.3832 26.9852C24.5134 27.0183 24.6104 27.0491 24.6744 27.0775L24.4329 27.8019C24.3903 27.7877 24.3311 27.77 24.2553 27.7486C24.1819 27.7273 24.0849 27.7167 23.9641 27.7167C23.6871 27.7167 23.4871 27.7865 23.364 27.9262C23.2433 28.0659 23.1829 28.2707 23.1829 28.5405V34.5491H22.3448ZM27.5703 34.6627C27.0779 34.6627 26.6458 34.5455 26.2742 34.3111C25.9048 34.0768 25.616 33.7489 25.4077 33.3275C25.2017 32.9061 25.0987 32.4137 25.0987 31.8502C25.0987 31.282 25.2017 30.7861 25.4077 30.3623C25.616 29.9385 25.9048 29.6094 26.2742 29.3751C26.6458 29.1407 27.0779 29.0235 27.5703 29.0235C28.0627 29.0235 28.4936 29.1407 28.8629 29.3751C29.2346 29.6094 29.5234 29.9385 29.7294 30.3623C29.9377 30.7861 30.0419 31.282 30.0419 31.8502C30.0419 32.4137 29.9377 32.9061 29.7294 33.3275C29.5234 33.7489 29.2346 34.0768 28.8629 34.3111C28.4936 34.5455 28.0627 34.6627 27.5703 34.6627ZM27.5703 33.9099C27.9444 33.9099 28.2521 33.814 28.4936 33.6222C28.7351 33.4305 28.9138 33.1783 29.0298 32.8658C29.1458 32.5533 29.2038 32.2148 29.2038 31.8502C29.2038 31.4856 29.1458 31.1459 29.0298 30.831C28.9138 30.5162 28.7351 30.2617 28.4936 30.0675C28.2521 29.8734 27.9444 29.7763 27.5703 29.7763C27.1963 29.7763 26.8885 29.8734 26.647 30.0675C26.4055 30.2617 26.2268 30.5162 26.1108 30.831C25.9948 31.1459 25.9368 31.4856 25.9368 31.8502C25.9368 32.2148 25.9948 32.5533 26.1108 32.8658C26.2268 33.1783 26.4055 33.4305 26.647 33.6222C26.8885 33.814 27.1963 33.9099 27.5703 33.9099ZM32.1593 27.2763V34.5491H31.3212V27.2763H32.1593ZM33.6943 34.5491V29.0945H34.5323V34.5491H33.6943ZM34.1204 28.1854C33.957 28.1854 33.8162 28.1298 33.6978 28.0185C33.5818 27.9073 33.5238 27.7735 33.5238 27.6173C33.5238 27.461 33.5818 27.3272 33.6978 27.216C33.8162 27.1047 33.957 27.0491 34.1204 27.0491C34.2837 27.0491 34.4234 27.1047 34.5394 27.216C34.6578 27.3272 34.717 27.461 34.717 27.6173C34.717 27.7735 34.6578 27.9073 34.5394 28.0185C34.4234 28.1298 34.2837 28.1854 34.1204 28.1854ZM38.2832 34.6627C37.7908 34.6627 37.3587 34.5455 36.987 34.3111C36.6177 34.0768 36.3289 33.7489 36.1206 33.3275C35.9146 32.9061 35.8116 32.4137 35.8116 31.8502C35.8116 31.282 35.9146 30.7861 36.1206 30.3623C36.3289 29.9385 36.6177 29.6094 36.987 29.3751C37.3587 29.1407 37.7908 29.0235 38.2832 29.0235C38.7756 29.0235 39.2065 29.1407 39.5758 29.3751C39.9475 29.6094 40.2363 29.9385 40.4423 30.3623C40.6506 30.7861 40.7548 31.282 40.7548 31.8502C40.7548 32.4137 40.6506 32.9061 40.4423 33.3275C40.2363 33.7489 39.9475 34.0768 39.5758 34.3111C39.2065 34.5455 38.7756 34.6627 38.2832 34.6627ZM38.2832 33.9099C38.6573 33.9099 38.965 33.814 39.2065 33.6222C39.448 33.4305 39.6267 33.1783 39.7427 32.8658C39.8587 32.5533 39.9167 32.2148 39.9167 31.8502C39.9167 31.4856 39.8587 31.1459 39.7427 30.831C39.6267 30.5162 39.448 30.2617 39.2065 30.0675C38.965 29.8734 38.6573 29.7763 38.2832 29.7763C37.9092 29.7763 37.6014 29.8734 37.3599 30.0675C37.1184 30.2617 36.9397 30.5162 36.8237 30.831C36.7077 31.1459 36.6497 31.4856 36.6497 31.8502C36.6497 32.2148 36.7077 32.5533 36.8237 32.8658C36.9397 33.1783 37.1184 33.4305 37.3599 33.6222C37.6014 33.814 37.9092 33.9099 38.2832 33.9099Z" fill="white"/>
</svg>
