<svg width="43" height="36" viewBox="0 0 43 36" fill="none" xmlns="http://www.w3.org/2000/svg">
<g clip-path="url(#clip0_720_5102)">
<path d="M15.8851 5.2176C16.2927 4.94531 16.7205 4.70914 17.1639 4.51059C18.4215 3.94742 19.0502 3.66583 19.8867 4.20777C20.7232 4.7497 20.7232 5.63869 20.7232 7.41665V8.79165C20.7232 10.5201 20.7232 11.3844 21.2602 11.9213C21.7972 12.4583 22.6614 12.4583 24.3899 12.4583H25.7649C27.5429 12.4583 28.4318 12.4583 28.9738 13.2948C29.5157 14.1313 29.2341 14.7601 28.671 16.0176C28.4724 16.461 28.2362 16.8889 27.9639 17.2964C27.0071 18.7285 25.647 19.8447 24.0558 20.5038C22.4645 21.1629 20.7136 21.3353 19.0243 20.9993C17.3351 20.6633 15.7834 19.8339 14.5655 18.616C13.3476 17.3982 12.5182 15.8465 12.1822 14.1572C11.8462 12.468 12.0187 10.717 12.6778 9.12578C13.3369 7.53454 14.4531 6.17449 15.8851 5.2176Z" fill="white"/>
<path d="M29.8404 7.47988C29.0963 5.59091 27.5906 4.08527 25.7017 3.34111C24.2886 2.78443 23.0149 4.06452 23.0149 5.58331V9.24997C23.0149 9.75623 23.4253 10.1666 23.9316 10.1666H27.5982C29.117 10.1666 30.3971 8.89297 29.8404 7.47988Z" fill="white"/>
</g>
<path d="M1.17656 34V26.7273H3.90383C4.46254 26.7273 4.93129 26.8314 5.31008 27.0398C5.69124 27.2481 5.97888 27.5346 6.17301 27.8991C6.3695 28.2614 6.46775 28.6733 6.46775 29.1349C6.46775 29.6013 6.3695 30.0156 6.17301 30.3778C5.97651 30.7401 5.6865 31.0253 5.30298 31.2337C4.91946 31.4396 4.44715 31.5426 3.88608 31.5426H2.07855V30.4595H3.70852C4.03522 30.4595 4.30274 30.4027 4.51108 30.2891C4.71941 30.1754 4.87329 30.0192 4.97272 29.8203C5.07452 29.6214 5.12542 29.393 5.12542 29.1349C5.12542 28.8769 5.07452 28.6496 4.97272 28.4531C4.87329 28.2566 4.71822 28.1039 4.50752 27.995C4.29919 27.8838 4.03049 27.8281 3.70142 27.8281H2.49403V34H1.17656ZM9.85642 34.1065C9.32375 34.1065 8.86211 33.9893 8.47148 33.755C8.08085 33.5206 7.77782 33.1927 7.56239 32.7713C7.34932 32.3499 7.24279 31.8575 7.24279 31.294C7.24279 30.7306 7.34932 30.237 7.56239 29.8132C7.77782 29.3894 8.08085 29.0604 8.47148 28.826C8.86211 28.5916 9.32375 28.4744 9.85642 28.4744C10.3891 28.4744 10.8507 28.5916 11.2414 28.826C11.632 29.0604 11.9338 29.3894 12.1469 29.8132C12.3623 30.237 12.4701 30.7306 12.4701 31.294C12.4701 31.8575 12.3623 32.3499 12.1469 32.7713C11.9338 33.1927 11.632 33.5206 11.2414 33.755C10.8507 33.9893 10.3891 34.1065 9.85642 34.1065ZM9.86353 33.0767C10.1524 33.0767 10.3938 32.9974 10.588 32.8388C10.7821 32.6778 10.9265 32.4624 11.0212 32.1925C11.1183 31.9226 11.1668 31.6219 11.1668 31.2905C11.1668 30.9567 11.1183 30.6548 11.0212 30.3849C10.9265 30.1127 10.7821 29.8961 10.588 29.7351C10.3938 29.5741 10.1524 29.4936 9.86353 29.4936C9.5676 29.4936 9.32139 29.5741 9.12489 29.7351C8.93076 29.8961 8.78516 30.1127 8.6881 30.3849C8.5934 30.6548 8.54605 30.9567 8.54605 31.2905C8.54605 31.6219 8.5934 31.9226 8.6881 32.1925C8.78516 32.4624 8.93076 32.6778 9.12489 32.8388C9.32139 32.9974 9.5676 33.0767 9.86353 33.0767ZM13.5611 34V28.5455H14.8076V29.4545H14.8644C14.9638 29.1397 15.1343 28.897 15.3758 28.7266C15.6196 28.5537 15.8978 28.4673 16.2103 28.4673C16.2813 28.4673 16.3606 28.4709 16.4482 28.478C16.5382 28.4827 16.6128 28.491 16.6719 28.5028V29.6854C16.6175 29.6664 16.5311 29.6499 16.4127 29.6357C16.2967 29.6191 16.1843 29.6108 16.0754 29.6108C15.841 29.6108 15.6303 29.6617 15.4432 29.7635C15.2586 29.8629 15.113 30.0014 15.0065 30.179C14.8999 30.3565 14.8467 30.5613 14.8467 30.7933V34H13.5611ZM20.5427 28.5455V29.5398H17.407V28.5455H20.5427ZM18.1812 27.2386H19.4667V32.3594C19.4667 32.5322 19.4927 32.6648 19.5448 32.7571C19.5993 32.8471 19.6703 32.9086 19.7579 32.9418C19.8455 32.9749 19.9425 32.9915 20.0491 32.9915C20.1296 32.9915 20.203 32.9856 20.2692 32.9737C20.3379 32.9619 20.39 32.9512 20.4255 32.9418L20.6421 33.9467C20.5735 33.9704 20.4752 33.9964 20.3474 34.0249C20.2219 34.0533 20.068 34.0698 19.8857 34.0746C19.5638 34.084 19.2737 34.0355 19.0157 33.929C18.7576 33.8201 18.5529 33.652 18.4013 33.4247C18.2522 33.1974 18.1788 32.9134 18.1812 32.5724V27.2386ZM24.3806 28.5455V29.5398H21.1561V28.5455H24.3806ZM21.9622 34V28.0305C21.9622 27.6636 22.038 27.3582 22.1895 27.1143C22.3434 26.8705 22.5494 26.6882 22.8074 26.5675C23.0655 26.4467 23.3519 26.3864 23.6668 26.3864C23.8893 26.3864 24.087 26.4041 24.2598 26.4396C24.4327 26.4751 24.5605 26.5071 24.6434 26.5355L24.3877 27.5298C24.3332 27.5133 24.2646 27.4967 24.1817 27.4801C24.0988 27.4612 24.0065 27.4517 23.9047 27.4517C23.6656 27.4517 23.4963 27.5097 23.3969 27.6257C23.2998 27.7393 23.2513 27.9027 23.2513 28.1158V34H21.9622ZM27.5615 34.1065C27.0288 34.1065 26.5672 33.9893 26.1766 33.755C25.7859 33.5206 25.4829 33.1927 25.2675 32.7713C25.0544 32.3499 24.9479 31.8575 24.9479 31.294C24.9479 30.7306 25.0544 30.237 25.2675 29.8132C25.4829 29.3894 25.7859 29.0604 26.1766 28.826C26.5672 28.5916 27.0288 28.4744 27.5615 28.4744C28.0942 28.4744 28.5558 28.5916 28.9464 28.826C29.3371 29.0604 29.6389 29.3894 29.852 29.8132C30.0674 30.237 30.1751 30.7306 30.1751 31.294C30.1751 31.8575 30.0674 32.3499 29.852 32.7713C29.6389 33.1927 29.3371 33.5206 28.9464 33.755C28.5558 33.9893 28.0942 34.1065 27.5615 34.1065ZM27.5686 33.0767C27.8574 33.0767 28.0989 32.9974 28.293 32.8388C28.4872 32.6778 28.6316 32.4624 28.7263 32.1925C28.8233 31.9226 28.8719 31.6219 28.8719 31.2905C28.8719 30.9567 28.8233 30.6548 28.7263 30.3849C28.6316 30.1127 28.4872 29.8961 28.293 29.7351C28.0989 29.5741 27.8574 29.4936 27.5686 29.4936C27.2727 29.4936 27.0265 29.5741 26.83 29.7351C26.6358 29.8961 26.4902 30.1127 26.3932 30.3849C26.2985 30.6548 26.2511 30.9567 26.2511 31.2905C26.2511 31.6219 26.2985 31.9226 26.3932 32.1925C26.4902 32.4624 26.6358 32.6778 26.83 32.8388C27.0265 32.9974 27.2727 33.0767 27.5686 33.0767ZM32.5517 26.7273V34H31.2662V26.7273H32.5517ZM33.8736 34V28.5455H35.1592V34H33.8736ZM34.52 27.7713C34.3164 27.7713 34.1412 27.7038 33.9944 27.5689C33.8476 27.4316 33.7742 27.267 33.7742 27.0753C33.7742 26.8812 33.8476 26.7166 33.9944 26.5817C34.1412 26.4444 34.3164 26.3757 34.52 26.3757C34.7259 26.3757 34.9011 26.4444 35.0455 26.5817C35.1923 26.7166 35.2657 26.8812 35.2657 27.0753C35.2657 27.267 35.1923 27.4316 35.0455 27.5689C34.9011 27.7038 34.7259 27.7713 34.52 27.7713ZM38.8603 34.1065C38.3277 34.1065 37.866 33.9893 37.4754 33.755C37.0848 33.5206 36.7817 33.1927 36.5663 32.7713C36.3532 32.3499 36.2467 31.8575 36.2467 31.294C36.2467 30.7306 36.3532 30.237 36.5663 29.8132C36.7817 29.3894 37.0848 29.0604 37.4754 28.826C37.866 28.5916 38.3277 28.4744 38.8603 28.4744C39.393 28.4744 39.8546 28.5916 40.2453 28.826C40.6359 29.0604 40.9377 29.3894 41.1508 29.8132C41.3662 30.237 41.474 30.7306 41.474 31.294C41.474 31.8575 41.3662 32.3499 41.1508 32.7713C40.9377 33.1927 40.6359 33.5206 40.2453 33.755C39.8546 33.9893 39.393 34.1065 38.8603 34.1065ZM38.8674 33.0767C39.1563 33.0767 39.3977 32.9974 39.5919 32.8388C39.786 32.6778 39.9304 32.4624 40.0251 32.1925C40.1222 31.9226 40.1707 31.6219 40.1707 31.2905C40.1707 30.9567 40.1222 30.6548 40.0251 30.3849C39.9304 30.1127 39.786 29.8961 39.5919 29.7351C39.3977 29.5741 39.1563 29.4936 38.8674 29.4936C38.5715 29.4936 38.3253 29.5741 38.1288 29.7351C37.9347 29.8961 37.7891 30.1127 37.692 30.3849C37.5973 30.6548 37.55 30.9567 37.55 31.2905C37.55 31.6219 37.5973 31.9226 37.692 32.1925C37.7891 32.4624 37.9347 32.6778 38.1288 32.8388C38.3253 32.9974 38.5715 33.0767 38.8674 33.0767Z" fill="white"/>
<defs>
<clipPath id="clip0_720_5102">
<rect width="23.9709" height="23.9709" fill="white" transform="translate(8.88818)"/>
</clipPath>
</defs>
</svg>
